<svg xmlns="http://www.w3.org/2000/svg" xmlns:xlink="http://www.w3.org/1999/xlink" zoomAndPan="magnify" preserveAspectRatio="xMidYMid meet" version="1.0" viewBox="301 0.14 422 575.99"><defs><clipPath id="66d82b27e1"><path d="M 301 0.140625 L 723 0.140625 L 723 575.859375 L 301 575.859375 Z M 301 0.140625 " clip-rule="nonzero"/></clipPath><clipPath id="fbafe764fe"><path d="M 301 0.140625 L 723 0.140625 L 723 575.859375 L 301 575.859375 Z M 301 0.140625 " clip-rule="nonzero"/></clipPath></defs><path fill="#ffffff" d="M 653.621094 449.398438 C 652.511719 435.625 640.820312 424.835938 627.011719 424.835938 L 397.085938 424.835938 C 383.273438 424.835938 371.585938 435.625 370.472656 449.398438 L 364.933594 518.066406 C 364.335938 525.480469 366.878906 532.863281 371.917969 538.332031 C 376.957031 543.796875 384.109375 546.933594 391.542969 546.933594 L 632.5625 546.933594 C 639.992188 546.933594 647.148438 543.796875 652.1875 538.332031 C 657.226562 532.867188 659.769531 525.480469 659.171875 518.066406 Z M 379.578125 450.132812 C 380.308594 441.074219 388 433.976562 397.085938 433.976562 L 627.015625 433.976562 C 636.097656 433.976562 643.785156 441.074219 644.519531 450.132812 L 647.617188 488.484375 L 376.492188 488.484375 Z M 645.464844 532.132812 C 642.105469 535.777344 637.515625 537.789062 632.554688 537.789062 L 391.539062 537.789062 C 386.578125 537.789062 381.996094 535.785156 378.628906 532.132812 C 375.265625 528.484375 373.636719 523.75 374.03125 518.800781 L 375.742188 497.621094 L 648.34375 497.621094 L 650.050781 518.800781 C 650.460938 523.75 648.828125 528.484375 645.464844 532.132812 Z M 645.464844 532.132812 " fill-opacity="1" fill-rule="nonzero"/><path fill="#ffffff" d="M 402.695312 475.769531 L 621.421875 475.769531 C 623.945312 475.769531 625.992188 473.722656 625.992188 471.199219 C 625.992188 468.675781 623.945312 466.628906 621.421875 466.628906 L 402.695312 466.628906 C 400.171875 466.628906 398.125 468.675781 398.125 471.199219 C 398.125 473.722656 400.171875 475.769531 402.695312 475.769531 Z M 402.695312 475.769531 " fill-opacity="1" fill-rule="nonzero"/><g clip-path="url(#66d82b27e1)"><path fill="#ffffff" d="M 682.378906 346.394531 C 699.984375 346.394531 714.300781 332.0625 714.300781 314.449219 L 714.300781 300.003906 C 718.636719 298.09375 721.523438 294.003906 721.746094 289.207031 C 723.46875 252.667969 719.453125 219.058594 709.816406 189.3125 C 707.175781 181.160156 701.539062 174.675781 694.382812 170.859375 C 698.246094 167.609375 701.046875 163.105469 702.0625 157.882812 C 708.601562 124.304688 708.601562 90.261719 702.0625 56.683594 C 699.992188 46.046875 690.585938 38.324219 679.699219 38.324219 L 560.835938 38.324219 L 554.230469 19.9375 C 549.976562 8.097656 537.609375 0.140625 523.457031 0.140625 L 500.644531 0.140625 C 486.488281 0.140625 474.121094 8.097656 469.867188 19.9375 L 463.261719 38.324219 L 344.90625 38.324219 C 333.675781 38.324219 324.226562 46.332031 322.429688 57.355469 C 317.039062 90.484375 317.039062 124.082031 322.429688 157.207031 C 323.3125 162.640625 326.070312 167.328125 329.972656 170.695312 C 322.691406 174.488281 316.953125 181.050781 314.28125 189.300781 C 304.640625 219.046875 300.625 252.65625 302.347656 289.199219 C 302.570312 293.996094 305.457031 298.082031 309.792969 300 L 309.792969 314.445312 C 309.792969 332.058594 324.117188 346.390625 341.71875 346.390625 L 348.753906 346.390625 C 348.074219 350.320312 347.398438 354.253906 346.769531 358.234375 L 323.082031 366.882812 C 311.964844 370.949219 304.484375 381.144531 304.035156 392.863281 C 301.574219 456.054688 316.726562 520.992188 341.730469 554.449219 C 341.773438 554.503906 341.835938 554.523438 341.882812 554.574219 C 350.089844 567.5 364.46875 576.132812 380.808594 576.132812 L 643.277344 576.132812 C 659.617188 576.132812 673.996094 567.5 682.203125 554.574219 C 682.246094 554.523438 682.3125 554.503906 682.355469 554.449219 C 707.355469 520.992188 722.511719 456.054688 720.050781 392.863281 C 719.601562 381.140625 712.121094 370.941406 701.003906 366.878906 L 677.316406 358.230469 C 676.691406 354.246094 676.015625 350.316406 675.332031 346.386719 L 682.378906 346.386719 Z M 682.378906 337.25 L 673.710938 337.25 C 669.464844 314.105469 664.371094 291.867188 658.421875 270.59375 C 659.035156 270.054688 659.652344 269.515625 660.21875 268.996094 C 667.300781 262.503906 670.164062 252.621094 667.671875 243.21875 L 660.804688 217.273438 L 667.105469 219.839844 C 673.765625 222.550781 678.496094 228.464844 679.75 235.664062 C 685.070312 266.09375 691.667969 286.003906 699.9375 296.546875 C 701.332031 298.324219 703.160156 299.550781 705.164062 300.296875 L 705.164062 314.445312 C 705.164062 327.019531 694.941406 337.25 682.378906 337.25 Z M 582.441406 334.53125 L 566.609375 334.53125 L 566.609375 265.464844 L 582.441406 265.464844 Z M 566.609375 343.675781 L 582.441406 343.675781 L 582.441406 368.089844 C 582.441406 372.460938 578.894531 376.011719 574.527344 376.011719 C 570.15625 376.011719 566.609375 372.460938 566.609375 368.089844 Z M 587.011719 256.324219 L 562.039062 256.324219 C 559.519531 256.324219 557.472656 258.371094 557.472656 260.894531 L 557.472656 302.316406 C 543.179688 304.355469 527.949219 305.433594 512.050781 305.433594 C 496.152344 305.433594 480.921875 304.355469 466.628906 302.316406 L 466.628906 260.894531 C 466.628906 258.371094 464.582031 256.324219 462.058594 256.324219 L 437.089844 256.324219 C 434.566406 256.324219 432.519531 258.371094 432.519531 260.894531 L 432.519531 295.113281 C 400.519531 285.804688 380.96875 272.253906 370.054688 262.257812 C 365.480469 258.066406 363.644531 251.667969 365.261719 245.558594 L 383.601562 176.242188 L 640.503906 176.242188 L 658.847656 245.558594 C 660.464844 251.664062 658.628906 258.066406 654.054688 262.253906 C 643.140625 272.253906 623.59375 285.800781 591.589844 295.105469 L 591.589844 260.894531 C 591.578125 258.367188 589.535156 256.324219 587.011719 256.324219 Z M 457.484375 334.53125 L 441.652344 334.53125 L 441.652344 265.464844 L 457.484375 265.464844 Z M 441.652344 343.675781 L 457.484375 343.675781 L 457.484375 368.089844 C 457.484375 372.460938 453.933594 376.011719 449.570312 376.011719 C 445.207031 376.011719 441.652344 372.460938 441.652344 368.089844 Z M 533.996094 47.472656 C 534 47.472656 534.003906 47.472656 534.007812 47.472656 C 534.015625 47.472656 534.019531 47.472656 534.023438 47.472656 L 557.609375 47.472656 C 557.613281 47.472656 557.617188 47.472656 557.621094 47.472656 C 557.628906 47.472656 557.632812 47.472656 557.636719 47.472656 L 566.714844 47.472656 L 566.714844 167.097656 L 457.382812 167.097656 L 457.382812 47.472656 Z M 496.308594 38.332031 L 498.25 32.140625 C 499.207031 29.082031 502.804688 26.859375 506.792969 26.859375 L 517.308594 26.859375 C 521.296875 26.859375 524.890625 29.082031 525.851562 32.144531 L 527.792969 38.332031 Z M 575.851562 167.097656 L 575.851562 47.472656 L 601.644531 47.472656 L 601.644531 167.097656 Z M 448.246094 167.097656 L 422.453125 167.097656 L 422.453125 47.472656 L 448.246094 47.472656 Z M 701.125 192.132812 C 710.425781 220.828125 714.292969 253.34375 712.625 288.777344 C 712.542969 290.480469 711.34375 291.460938 710.25 291.8125 C 709.527344 292.039062 708.164062 292.226562 707.132812 290.910156 C 699.921875 281.714844 693.738281 262.59375 688.753906 234.09375 C 686.949219 223.769531 680.148438 215.277344 670.554688 211.371094 L 657.886719 206.214844 L 649.957031 176.242188 L 679.414062 176.242188 C 689.316406 176.242188 698.046875 182.628906 701.125 192.132812 Z M 693.09375 58.433594 C 699.402344 90.847656 699.402344 123.71875 693.09375 156.136719 C 691.855469 162.488281 686.222656 167.097656 679.699219 167.097656 L 610.777344 167.097656 L 610.777344 47.472656 L 679.699219 47.472656 C 686.222656 47.472656 691.855469 52.082031 693.09375 58.433594 Z M 478.464844 23.035156 C 481.371094 14.9375 490.492188 9.285156 500.644531 9.285156 L 523.457031 9.285156 C 533.605469 9.285156 542.726562 14.9375 545.636719 23.035156 L 551.132812 38.332031 L 537.371094 38.332031 L 534.570312 29.40625 C 532.410156 22.527344 525.316406 17.71875 517.3125 17.71875 L 506.796875 17.71875 C 498.792969 17.71875 491.699219 22.523438 489.539062 29.402344 L 486.730469 38.332031 L 472.972656 38.332031 Z M 331.449219 58.828125 C 332.515625 52.25 338.179688 47.472656 344.90625 47.472656 L 413.320312 47.472656 L 413.320312 167.097656 L 344.90625 167.097656 C 338.175781 167.097656 332.515625 162.320312 331.449219 155.742188 C 326.222656 123.585938 326.222656 90.984375 331.449219 58.828125 Z M 322.972656 192.132812 C 326.050781 182.628906 334.777344 176.242188 344.691406 176.242188 L 374.148438 176.242188 L 366.214844 206.214844 L 353.546875 211.371094 C 343.949219 215.277344 337.148438 223.769531 335.34375 234.09375 C 330.359375 262.59375 324.179688 281.714844 316.964844 290.910156 C 315.933594 292.230469 314.578125 292.042969 313.851562 291.8125 C 312.753906 291.460938 311.558594 290.480469 311.476562 288.777344 C 309.804688 253.34375 313.671875 220.828125 322.972656 192.132812 Z M 341.722656 337.25 C 329.160156 337.25 318.933594 327.023438 318.933594 314.449219 L 318.933594 300.300781 C 320.9375 299.554688 322.761719 298.332031 324.15625 296.550781 C 332.425781 286.011719 339.027344 266.09375 344.34375 235.667969 C 345.601562 228.46875 350.332031 222.550781 356.992188 219.84375 L 363.292969 217.277344 L 356.425781 243.222656 C 353.941406 252.628906 356.796875 262.507812 363.882812 269.003906 C 364.453125 269.527344 365.066406 270.066406 365.675781 270.605469 C 359.726562 291.871094 354.632812 314.117188 350.386719 337.257812 L 341.722656 337.257812 Z M 313.167969 393.222656 C 313.480469 385.226562 318.601562 378.261719 326.222656 375.476562 L 345.25 368.527344 C 338.234375 416.644531 334.695312 468.339844 334.667969 523.195312 C 319.84375 488.890625 311.351562 439.960938 313.167969 393.222656 Z M 643.28125 566.996094 L 380.8125 566.996094 C 360.496094 566.996094 343.886719 550.40625 343.789062 530.011719 C 343.328125 435.5 353.324219 350.398438 373.4375 276.859375 C 386.179688 286.359375 405.234375 296.992188 432.515625 304.59375 L 432.515625 368.085938 C 432.515625 377.492188 440.167969 385.152344 449.570312 385.152344 C 458.976562 385.152344 466.621094 377.492188 466.621094 368.085938 L 466.621094 311.535156 C 480.972656 313.515625 496.1875 314.574219 512.046875 314.574219 C 527.902344 314.574219 543.117188 313.511719 557.46875 311.535156 L 557.46875 368.085938 C 557.46875 377.492188 565.121094 385.152344 574.519531 385.152344 C 583.921875 385.152344 591.574219 377.492188 591.574219 368.085938 L 591.574219 304.597656 C 618.855469 296.996094 637.910156 286.359375 650.652344 276.859375 C 670.765625 350.394531 680.761719 435.496094 680.300781 530.011719 C 680.207031 550.40625 663.597656 566.996094 643.28125 566.996094 Z M 697.875 375.476562 C 705.492188 378.261719 710.617188 385.226562 710.925781 393.222656 C 712.738281 439.960938 704.25 488.890625 689.421875 523.191406 C 689.398438 468.335938 685.855469 416.644531 678.84375 368.523438 Z M 697.875 375.476562 " fill-opacity="1" fill-rule="nonzero"/></g><path fill="#ffffff" d="M 653.621094 449.398438 C 652.511719 435.625 640.820312 424.835938 627.011719 424.835938 L 397.085938 424.835938 C 383.273438 424.835938 371.585938 435.625 370.472656 449.398438 L 364.933594 518.066406 C 364.335938 525.480469 366.878906 532.863281 371.917969 538.332031 C 376.957031 543.796875 384.109375 546.933594 391.542969 546.933594 L 632.5625 546.933594 C 639.992188 546.933594 647.148438 543.796875 652.1875 538.332031 C 657.226562 532.867188 659.769531 525.480469 659.171875 518.066406 Z M 379.578125 450.132812 C 380.308594 441.074219 388 433.976562 397.085938 433.976562 L 627.015625 433.976562 C 636.097656 433.976562 643.785156 441.074219 644.519531 450.132812 L 647.617188 488.484375 L 376.492188 488.484375 Z M 645.464844 532.132812 C 642.105469 535.777344 637.515625 537.789062 632.554688 537.789062 L 391.539062 537.789062 C 386.578125 537.789062 381.996094 535.785156 378.628906 532.132812 C 375.265625 528.484375 373.636719 523.75 374.03125 518.800781 L 375.742188 497.621094 L 648.34375 497.621094 L 650.050781 518.800781 C 650.460938 523.75 648.828125 528.484375 645.464844 532.132812 Z M 645.464844 532.132812 " fill-opacity="1" fill-rule="nonzero"/><path fill="#ffffff" d="M 402.695312 475.769531 L 621.421875 475.769531 C 623.945312 475.769531 625.992188 473.722656 625.992188 471.199219 C 625.992188 468.675781 623.945312 466.628906 621.421875 466.628906 L 402.695312 466.628906 C 400.171875 466.628906 398.125 468.675781 398.125 471.199219 C 398.125 473.722656 400.171875 475.769531 402.695312 475.769531 Z M 402.695312 475.769531 " fill-opacity="1" fill-rule="nonzero"/><g clip-path="url(#fbafe764fe)"><path fill="#ffffff" d="M 682.378906 346.394531 C 699.984375 346.394531 714.300781 332.0625 714.300781 314.449219 L 714.300781 300.003906 C 718.636719 298.09375 721.523438 294.003906 721.746094 289.207031 C 723.46875 252.667969 719.453125 219.058594 709.816406 189.3125 C 707.175781 181.160156 701.539062 174.675781 694.382812 170.859375 C 698.246094 167.609375 701.046875 163.105469 702.0625 157.882812 C 708.601562 124.304688 708.601562 90.261719 702.0625 56.683594 C 699.992188 46.046875 690.585938 38.324219 679.699219 38.324219 L 560.835938 38.324219 L 554.230469 19.9375 C 549.976562 8.097656 537.609375 0.140625 523.457031 0.140625 L 500.644531 0.140625 C 486.488281 0.140625 474.121094 8.097656 469.867188 19.9375 L 463.261719 38.324219 L 344.90625 38.324219 C 333.675781 38.324219 324.226562 46.332031 322.429688 57.355469 C 317.039062 90.484375 317.039062 124.082031 322.429688 157.207031 C 323.3125 162.640625 326.070312 167.328125 329.972656 170.695312 C 322.691406 174.488281 316.953125 181.050781 314.28125 189.300781 C 304.640625 219.046875 300.625 252.65625 302.347656 289.199219 C 302.570312 293.996094 305.457031 298.082031 309.792969 300 L 309.792969 314.445312 C 309.792969 332.058594 324.117188 346.390625 341.71875 346.390625 L 348.753906 346.390625 C 348.074219 350.320312 347.398438 354.253906 346.769531 358.234375 L 323.082031 366.882812 C 311.964844 370.949219 304.484375 381.144531 304.035156 392.863281 C 301.574219 456.054688 316.726562 520.992188 341.730469 554.449219 C 341.773438 554.503906 341.835938 554.523438 341.882812 554.574219 C 350.089844 567.5 364.46875 576.132812 380.808594 576.132812 L 643.277344 576.132812 C 659.617188 576.132812 673.996094 567.5 682.203125 554.574219 C 682.246094 554.523438 682.3125 554.503906 682.355469 554.449219 C 707.355469 520.992188 722.511719 456.054688 720.050781 392.863281 C 719.601562 381.140625 712.121094 370.941406 701.003906 366.878906 L 677.316406 358.230469 C 676.691406 354.246094 676.015625 350.316406 675.332031 346.386719 L 682.378906 346.386719 Z M 682.378906 337.25 L 673.710938 337.25 C 669.464844 314.105469 664.371094 291.867188 658.421875 270.59375 C 659.035156 270.054688 659.652344 269.515625 660.21875 268.996094 C 667.300781 262.503906 670.164062 252.621094 667.671875 243.21875 L 660.804688 217.273438 L 667.105469 219.839844 C 673.765625 222.550781 678.496094 228.464844 679.75 235.664062 C 685.070312 266.09375 691.667969 286.003906 699.9375 296.546875 C 701.332031 298.324219 703.160156 299.550781 705.164062 300.296875 L 705.164062 314.445312 C 705.164062 327.019531 694.941406 337.25 682.378906 337.25 Z M 582.441406 334.53125 L 566.609375 334.53125 L 566.609375 265.464844 L 582.441406 265.464844 Z M 566.609375 343.675781 L 582.441406 343.675781 L 582.441406 368.089844 C 582.441406 372.460938 578.894531 376.011719 574.527344 376.011719 C 570.15625 376.011719 566.609375 372.460938 566.609375 368.089844 Z M 587.011719 256.324219 L 562.039062 256.324219 C 559.519531 256.324219 557.472656 258.371094 557.472656 260.894531 L 557.472656 302.316406 C 543.179688 304.355469 527.949219 305.433594 512.050781 305.433594 C 496.152344 305.433594 480.921875 304.355469 466.628906 302.316406 L 466.628906 260.894531 C 466.628906 258.371094 464.582031 256.324219 462.058594 256.324219 L 437.089844 256.324219 C 434.566406 256.324219 432.519531 258.371094 432.519531 260.894531 L 432.519531 295.113281 C 400.519531 285.804688 380.96875 272.253906 370.054688 262.257812 C 365.480469 258.066406 363.644531 251.667969 365.261719 245.558594 L 383.601562 176.242188 L 640.503906 176.242188 L 658.847656 245.558594 C 660.464844 251.664062 658.628906 258.066406 654.054688 262.253906 C 643.140625 272.253906 623.59375 285.800781 591.589844 295.105469 L 591.589844 260.894531 C 591.578125 258.367188 589.535156 256.324219 587.011719 256.324219 Z M 457.484375 334.53125 L 441.652344 334.53125 L 441.652344 265.464844 L 457.484375 265.464844 Z M 441.652344 343.675781 L 457.484375 343.675781 L 457.484375 368.089844 C 457.484375 372.460938 453.933594 376.011719 449.570312 376.011719 C 445.207031 376.011719 441.652344 372.460938 441.652344 368.089844 Z M 533.996094 47.472656 C 534 47.472656 534.003906 47.472656 534.007812 47.472656 C 534.015625 47.472656 534.019531 47.472656 534.023438 47.472656 L 557.609375 47.472656 C 557.613281 47.472656 557.617188 47.472656 557.621094 47.472656 C 557.628906 47.472656 557.632812 47.472656 557.636719 47.472656 L 566.714844 47.472656 L 566.714844 167.097656 L 457.382812 167.097656 L 457.382812 47.472656 Z M 496.308594 38.332031 L 498.25 32.140625 C 499.207031 29.082031 502.804688 26.859375 506.792969 26.859375 L 517.308594 26.859375 C 521.296875 26.859375 524.890625 29.082031 525.851562 32.144531 L 527.792969 38.332031 Z M 575.851562 167.097656 L 575.851562 47.472656 L 601.644531 47.472656 L 601.644531 167.097656 Z M 448.246094 167.097656 L 422.453125 167.097656 L 422.453125 47.472656 L 448.246094 47.472656 Z M 701.125 192.132812 C 710.425781 220.828125 714.292969 253.34375 712.625 288.777344 C 712.542969 290.480469 711.34375 291.460938 710.25 291.8125 C 709.527344 292.039062 708.164062 292.226562 707.132812 290.910156 C 699.921875 281.714844 693.738281 262.59375 688.753906 234.09375 C 686.949219 223.769531 680.148438 215.277344 670.554688 211.371094 L 657.886719 206.214844 L 649.957031 176.242188 L 679.414062 176.242188 C 689.316406 176.242188 698.046875 182.628906 701.125 192.132812 Z M 693.09375 58.433594 C 699.402344 90.847656 699.402344 123.71875 693.09375 156.136719 C 691.855469 162.488281 686.222656 167.097656 679.699219 167.097656 L 610.777344 167.097656 L 610.777344 47.472656 L 679.699219 47.472656 C 686.222656 47.472656 691.855469 52.082031 693.09375 58.433594 Z M 478.464844 23.035156 C 481.371094 14.9375 490.492188 9.285156 500.644531 9.285156 L 523.457031 9.285156 C 533.605469 9.285156 542.726562 14.9375 545.636719 23.035156 L 551.132812 38.332031 L 537.371094 38.332031 L 534.570312 29.40625 C 532.410156 22.527344 525.316406 17.71875 517.3125 17.71875 L 506.796875 17.71875 C 498.792969 17.71875 491.699219 22.523438 489.539062 29.402344 L 486.730469 38.332031 L 472.972656 38.332031 Z M 331.449219 58.828125 C 332.515625 52.25 338.179688 47.472656 344.90625 47.472656 L 413.320312 47.472656 L 413.320312 167.097656 L 344.90625 167.097656 C 338.175781 167.097656 332.515625 162.320312 331.449219 155.742188 C 326.222656 123.585938 326.222656 90.984375 331.449219 58.828125 Z M 322.972656 192.132812 C 326.050781 182.628906 334.777344 176.242188 344.691406 176.242188 L 374.148438 176.242188 L 366.214844 206.214844 L 353.546875 211.371094 C 343.949219 215.277344 337.148438 223.769531 335.34375 234.09375 C 330.359375 262.59375 324.179688 281.714844 316.964844 290.910156 C 315.933594 292.230469 314.578125 292.042969 313.851562 291.8125 C 312.753906 291.460938 311.558594 290.480469 311.476562 288.777344 C 309.804688 253.34375 313.671875 220.828125 322.972656 192.132812 Z M 341.722656 337.25 C 329.160156 337.25 318.933594 327.023438 318.933594 314.449219 L 318.933594 300.300781 C 320.9375 299.554688 322.761719 298.332031 324.15625 296.550781 C 332.425781 286.011719 339.027344 266.09375 344.34375 235.667969 C 345.601562 228.46875 350.332031 222.550781 356.992188 219.84375 L 363.292969 217.277344 L 356.425781 243.222656 C 353.941406 252.628906 356.796875 262.507812 363.882812 269.003906 C 364.453125 269.527344 365.066406 270.066406 365.675781 270.605469 C 359.726562 291.871094 354.632812 314.117188 350.386719 337.257812 L 341.722656 337.257812 Z M 313.167969 393.222656 C 313.480469 385.226562 318.601562 378.261719 326.222656 375.476562 L 345.25 368.527344 C 338.234375 416.644531 334.695312 468.339844 334.667969 523.195312 C 319.84375 488.890625 311.351562 439.960938 313.167969 393.222656 Z M 643.28125 566.996094 L 380.8125 566.996094 C 360.496094 566.996094 343.886719 550.40625 343.789062 530.011719 C 343.328125 435.5 353.324219 350.398438 373.4375 276.859375 C 386.179688 286.359375 405.234375 296.992188 432.515625 304.59375 L 432.515625 368.085938 C 432.515625 377.492188 440.167969 385.152344 449.570312 385.152344 C 458.976562 385.152344 466.621094 377.492188 466.621094 368.085938 L 466.621094 311.535156 C 480.972656 313.515625 496.1875 314.574219 512.046875 314.574219 C 527.902344 314.574219 543.117188 313.511719 557.46875 311.535156 L 557.46875 368.085938 C 557.46875 377.492188 565.121094 385.152344 574.519531 385.152344 C 583.921875 385.152344 591.574219 377.492188 591.574219 368.085938 L 591.574219 304.597656 C 618.855469 296.996094 637.910156 286.359375 650.652344 276.859375 C 670.765625 350.394531 680.761719 435.496094 680.300781 530.011719 C 680.207031 550.40625 663.597656 566.996094 643.28125 566.996094 Z M 697.875 375.476562 C 705.492188 378.261719 710.617188 385.226562 710.925781 393.222656 C 712.738281 439.960938 704.25 488.890625 689.421875 523.191406 C 689.398438 468.335938 685.855469 416.644531 678.84375 368.523438 Z M 697.875 375.476562 " fill-opacity="1" fill-rule="nonzero"/></g></svg>