<svg xmlns="http://www.w3.org/2000/svg" xmlns:xlink="http://www.w3.org/1999/xlink" width="1366" zoomAndPan="magnify" viewBox="0 0 1024.5 576" height="768" preserveAspectRatio="xMidYMid meet" version="1.0"><path fill="#ffffff" d="M 292.542969 464.65625 C 292.761719 464.472656 292.960938 464.308594 293.179688 464.144531 C 293.164062 462.609375 293.089844 460.671875 293.089844 458.550781 C 293.035156 456.816406 292.960938 455.117188 292.796875 453.378906 C 292.652344 451.589844 292.066406 442.066406 289.050781 443.636719 C 287.3125 447.441406 286.945312 452.703125 286.890625 456.25 C 286.816406 458.515625 290.035156 467.03125 292.542969 464.65625 Z M 307.460938 464.875 C 307.460938 464.328125 307.425781 463.6875 307.425781 462.921875 C 307.207031 459.648438 306.96875 456.394531 306.914062 453.125 C 306.402344 446.800781 305.394531 440.695312 303.511719 441.296875 C 299.617188 442.558594 299.324219 450.621094 299.125 453.855469 C 298.976562 456.378906 298.976562 458.84375 298.976562 461.3125 C 298.976562 462.355469 299.015625 463.304688 299.015625 464.144531 C 299.398438 464.328125 299.800781 464.566406 300.167969 464.914062 C 302.289062 466.777344 304.574219 467.582031 306.75 465.460938 C 306.96875 465.242188 307.207031 465.039062 307.460938 464.875 Z M 320.664062 461.953125 C 320.992188 461.605469 321.339844 461.347656 321.761719 461.128906 C 321.285156 457.785156 320.753906 453.855469 320.921875 450.144531 C 320.535156 448.5 316.457031 435.414062 314.136719 440.859375 C 313.3125 442.816406 312.820312 444.933594 312.5625 447.109375 C 313.625 453.34375 313.351562 460.542969 313.277344 464.746094 C 313.277344 464.914062 313.277344 465.039062 313.3125 465.167969 C 313.351562 465.203125 313.367188 465.203125 313.40625 465.242188 C 316.332031 466.960938 318.871094 464.109375 320.664062 461.953125 Z M 328.179688 461.183594 C 331.78125 460.617188 335.128906 458.644531 338.015625 455.921875 C 335.585938 452.484375 328.472656 439.636719 327.285156 447.183594 C 327.136719 448.207031 327.101562 449.265625 327.027344 450.289062 C 327.703125 454.183594 328.070312 458.113281 328.179688 461.183594 Z M 387.878906 388.585938 C 389.746094 386.6875 391.664062 384.894531 393.148438 382.738281 C 386.289062 377.53125 378.464844 374.292969 369.941406 373.382812 C 368.773438 375.027344 367.621094 376.671875 366.394531 378.242188 C 374.347656 379.394531 381.222656 383.46875 387.878906 388.585938 Z M 401.558594 392.535156 C 401.429688 392.023438 401.246094 391.53125 400.992188 391.128906 C 398.503906 393.46875 395.78125 395.496094 393.074219 397.617188 C 393.273438 398.035156 393.4375 398.421875 393.566406 398.824219 C 396.328125 396.832031 398.996094 394.746094 401.558594 392.535156 Z M 416.789062 299.140625 C 416.734375 298.992188 416.679688 298.828125 416.605469 298.628906 C 416.570312 298.589844 416.535156 298.589844 416.515625 298.535156 C 416.257812 297.988281 416.003906 297.441406 415.765625 296.875 C 414.996094 295.136719 414.871094 293.492188 415.328125 291.882812 C 410.5 291.847656 405.671875 292.597656 400.917969 294.203125 C 400.789062 295.667969 400.699219 297.148438 400.570312 298.589844 C 404.648438 298.335938 409.109375 299.339844 413.003906 299.378906 C 414.230469 299.394531 415.601562 299.503906 416.789062 299.140625 Z M 420.335938 540.964844 C 420.335938 540.835938 420.261719 540.726562 420.261719 540.597656 C 420.246094 536.429688 419.859375 532.355469 419.019531 528.296875 C 409.730469 531.183594 400.351562 533.632812 390.605469 533.46875 C 389.03125 538.058594 388.320312 543.851562 391.792969 547.507812 C 402.050781 547.671875 410.71875 543.355469 420.335938 540.964844 Z M 425.820312 301.296875 C 429.496094 301.222656 430.558594 297.53125 430.6875 294.460938 C 427.285156 293.363281 423.8125 292.597656 420.335938 292.175781 C 420.335938 292.210938 420.335938 292.210938 420.300781 292.230469 C 420.261719 292.339844 420.261719 292.433594 420.207031 292.523438 C 420.207031 292.558594 420.246094 292.597656 420.246094 292.613281 C 420.300781 294.078125 420.59375 295.996094 421.304688 297.660156 C 421.324219 297.695312 421.324219 297.769531 421.359375 297.824219 C 422.203125 299.761719 423.609375 301.332031 425.820312 301.296875 Z M 432.128906 289.890625 C 431.78125 288.226562 431.527344 286.511719 431.363281 284.847656 C 421.855469 281.484375 410.699219 279.675781 401.59375 284.132812 C 401.503906 285.777344 401.410156 287.425781 401.285156 289.050781 C 411.558594 285.980469 422.074219 286.675781 432.128906 289.890625 Z M 434.929688 538.734375 C 434.855469 533.761719 434.304688 528.882812 432.863281 524.148438 C 430.394531 524.859375 427.925781 525.574219 425.476562 526.339844 C 426.40625 530.710938 426.902344 535.132812 426.992188 539.664062 C 429.625 539.28125 432.257812 538.972656 434.929688 538.734375 Z M 436.335938 302.8125 C 435.824219 301.460938 435.277344 300.070312 434.761719 298.738281 C 434.507812 299.632812 434.125 300.527344 433.667969 301.332031 C 434.597656 301.773438 435.476562 302.265625 436.335938 302.8125 Z M 436.246094 243.59375 C 437.980469 224.039062 437.980469 204.574219 435.660156 185.089844 C 432.09375 187.246094 428.691406 189.714844 425.601562 192.382812 C 409.949219 205.945312 404.777344 220.492188 403.808594 241.128906 C 403.238281 253.757812 402.691406 266.277344 401.960938 278.742188 C 411.085938 275.304688 421.746094 276.621094 431.125 279.710938 C 431.199219 267.667969 435.128906 255.933594 436.246094 243.59375 Z M 439.207031 310.835938 C 439.171875 310.746094 439.132812 310.652344 439.097656 310.542969 C 436.335938 308.425781 433.519531 306.285156 430.191406 305.117188 C 428.984375 305.828125 427.539062 306.210938 425.820312 306.121094 C 423.171875 305.957031 421.050781 304.898438 419.441406 303.289062 C 418.507812 303.765625 417.375 304 416.3125 304.09375 C 411.265625 304.550781 405.289062 302.683594 400.1875 303.453125 C 399.050781 316.6875 397.554688 329.917969 395.433594 343.261719 C 395.066406 345.433594 393.621094 346.496094 391.996094 346.695312 C 383.566406 352.214844 378.300781 360.640625 372.886719 368.957031 C 382.195312 370.4375 390.605469 374.386719 398.027344 380.492188 C 399.125 381.351562 398.996094 382.519531 398.359375 383.34375 C 398.285156 383.507812 398.285156 383.632812 398.230469 383.800781 C 396.199219 387.582031 392.78125 390.160156 390 393.339844 C 389.085938 394.328125 387.933594 394.234375 387.09375 393.59375 C 386.710938 393.523438 386.363281 393.414062 385.980469 393.121094 C 378.8125 387.492188 371.589844 383.050781 362.648438 382.703125 C 353.449219 393.121094 343.300781 402.585938 334.195312 413.097656 C 332.695312 414.832031 330.847656 414.996094 329.3125 414.285156 C 328.417969 414.414062 327.449219 414.320312 326.480469 413.863281 C 320.664062 411.140625 310.863281 417.941406 306.457031 421.121094 C 301.867188 424.429688 292.90625 430.769531 293.035156 437.257812 C 293.035156 437.515625 293 437.734375 292.960938 437.953125 C 294.023438 438.628906 294.917969 439.761719 295.667969 441.171875 C 297.203125 437.769531 299.65625 435.449219 303.53125 435.523438 C 305.851562 435.558594 307.589844 436.511719 308.960938 438.0625 C 309.875 436.125 311.210938 434.628906 313.277344 434.042969 C 318.507812 432.5625 321.925781 435.652344 324.136719 440.4375 C 324.359375 440.21875 324.558594 439.945312 324.816406 439.761719 C 331.984375 433.367188 337.542969 444.84375 341.179688 450.492188 C 342.203125 449.6875 343.171875 448.882812 343.941406 448.078125 C 346.246094 443.785156 347.5625 439.125 347.378906 435.140625 C 347.378906 434.808594 347.414062 434.519531 347.433594 434.261719 C 347.378906 433.96875 347.378906 433.714844 347.304688 433.457031 C 346.609375 429.839844 348.605469 427.902344 351.457031 427.097656 C 351.546875 427.003906 351.65625 426.914062 351.75 426.824219 C 353.90625 425.359375 356.117188 424.042969 358.40625 422.820312 C 368.113281 414.996094 379.066406 408.820312 389.378906 401.785156 C 389.195312 400.796875 388.90625 399.792969 388.410156 398.859375 C 388.0625 398.164062 388.0625 397.453125 388.320312 396.867188 C 388.101562 396.171875 388.191406 395.367188 388.996094 394.710938 C 392.34375 392.058594 395.871094 389.609375 398.832031 386.484375 C 398.996094 386.339844 399.179688 386.265625 399.34375 386.175781 C 400.1875 385.277344 401.667969 384.894531 402.855469 385.882812 C 403.933594 386.816406 404.738281 387.910156 405.324219 389.097656 C 405.800781 388.640625 406.257812 388.203125 406.730469 387.746094 C 417.449219 376.925781 429.242188 367.640625 432.863281 351.960938 C 435.824219 339.113281 436.847656 326.007812 438.402344 312.921875 C 438.492188 312.097656 438.785156 311.421875 439.207031 310.835938 Z M 440.960938 363.96875 C 443.578125 357.644531 443.722656 352.507812 442.480469 346.75 C 439.554688 360.386719 434.378906 373.035156 423.097656 383.890625 C 413.589844 393.011719 404.722656 402.496094 393.566406 409.699219 C 393.402344 409.824219 393.203125 409.917969 393.054688 410.007812 C 409.914062 405 426.480469 399.664062 438.949219 386.816406 C 440.542969 379.6875 438.144531 370.785156 440.960938 363.96875 Z M 441.710938 538.203125 C 444.398438 538.003906 447.070312 537.800781 449.777344 537.617188 C 447.527344 532.757812 447.65625 525.792969 447.65625 520.363281 C 444.910156 521.003906 442.1875 521.71875 439.460938 522.410156 C 441.070312 527.492188 441.640625 532.867188 441.710938 538.203125 Z M 458.609375 536.558594 C 463.472656 535.972656 461.40625 524.515625 460.050781 517.476562 C 458.167969 517.914062 456.230469 518.371094 454.347656 518.792969 C 454.183594 524.347656 453.507812 537.125 458.609375 536.558594 Z M 478.574219 241.183594 C 472.136719 238.644531 466.433594 234.824219 462.210938 229.046875 C 451.566406 214.40625 451.804688 195.546875 450.617188 178.164062 C 448.292969 178.96875 446.046875 179.863281 443.832031 180.851562 C 446.265625 199.675781 447.105469 218.738281 445.441406 237.691406 C 444.4375 248.75 442.003906 259.277344 441.035156 269.785156 C 451.859375 258.144531 466.78125 252.332031 478.574219 241.183594 Z M 470.859375 139.835938 C 470.859375 139.765625 470.894531 139.710938 470.894531 139.636719 C 458.386719 122.582031 458.71875 96.082031 458.09375 74.769531 C 458.058594 74.589844 458.09375 74.386719 458.132812 74.203125 C 456.777344 74.074219 455.40625 73.949219 454.054688 73.785156 C 450.488281 104.984375 460.964844 138.136719 450.488281 168.039062 C 452.445312 167.453125 454.367188 166.976562 456.320312 166.519531 C 458.132812 157.65625 458.808594 149.503906 459.191406 143.4375 C 459.503906 136.804688 459.90625 132.636719 460.671875 132.597656 C 461.386719 132.597656 462.335938 136.65625 462.976562 143.328125 C 463.507812 149.121094 463.472656 156.925781 462.027344 165.496094 C 463.015625 165.371094 463.984375 165.242188 464.972656 165.113281 C 466.433594 164.253906 467.511719 162.957031 468.1875 161.203125 C 468.773438 159.886719 469.15625 158.460938 469.449219 157.054688 C 469.890625 153.910156 470.308594 150.75 470.601562 147.605469 C 470.640625 147.183594 470.695312 146.835938 470.804688 146.488281 C 470.820312 146.324219 470.820312 146.105469 470.859375 145.941406 C 470.859375 142.945312 470.859375 141.371094 470.859375 139.835938 Z M 467.640625 535.664062 C 470.695312 535.242188 473.746094 534.785156 476.765625 534.382812 C 476.125 527.621094 475.0625 520.914062 474.679688 514.132812 C 472.339844 514.71875 469.960938 515.246094 467.511719 515.796875 C 467.164062 515.90625 466.816406 515.960938 466.433594 516.050781 C 467.328125 521.515625 468.902344 529.6875 467.640625 535.664062 Z M 488.757812 27.398438 C 488.757812 27.324219 488.757812 27.269531 488.757812 27.175781 C 485.835938 18.804688 474.550781 30.796875 471.460938 34.175781 C 466.523438 39.660156 459.136719 48.140625 458.644531 56.164062 C 460.289062 56.203125 461.917969 56.238281 463.597656 56.3125 C 463.890625 55.890625 464.203125 55.414062 464.585938 54.757812 C 465.757812 52.671875 467.09375 50.625 468.480469 48.25 C 471.113281 43.515625 474.039062 38.820312 476.507812 36.132812 C 479.085938 33.464844 480.988281 32.019531 481.554688 32.476562 C 482.175781 32.917969 481.371094 35.164062 479.597656 38.417969 C 477.933594 41.726562 475.996094 45.894531 473.179688 50.9375 C 472.046875 52.929688 470.695312 54.792969 469.46875 56.53125 C 470.273438 56.566406 471.078125 56.601562 471.847656 56.621094 C 472.046875 56.019531 472.375 55.414062 472.886719 54.867188 C 480.75 46.257812 488.46875 39.863281 488.757812 27.398438 Z M 490.496094 144.882812 C 531.472656 157.015625 531.636719 99.480469 534.746094 73.398438 C 512.328125 75.703125 489.21875 76.617188 466.78125 75.007812 C 463.652344 74.769531 468.902344 138.484375 490.496094 144.882812 Z M 506.222656 201.15625 C 506.222656 201.121094 506.222656 201.101562 506.222656 201.066406 C 506.222656 200.679688 505.5625 200.351562 505.726562 200.078125 C 493.898438 193.425781 481.425781 185.347656 474.257812 173.851562 C 473.65625 174.050781 473.054688 174.179688 472.394531 174.179688 C 472.210938 174.234375 472.652344 174.269531 472.429688 174.308594 C 479.726562 187.757812 490.148438 196.222656 506.222656 201.15625 Z M 515.308594 245.585938 C 505.214844 246.007812 493.84375 245.753906 483.65625 242.902344 C 470.273438 256.515625 451.675781 262.109375 440.613281 277.921875 C 440.613281 283.914062 441.382812 289.964844 443.449219 296.085938 C 453.671875 287.808594 465.683594 282.433594 477.128906 275.890625 C 477.386719 275.5625 477.734375 275.269531 478.246094 275.105469 C 478.355469 275.085938 478.410156 275.085938 478.5 275.050781 C 492.234375 266.917969 503.058594 255.585938 515.308594 245.585938 Z M 522.515625 56.785156 C 517.980469 50.644531 512.382812 46.640625 504.285156 46.351562 C 500.261719 46.222656 496.640625 45.929688 493 44.832031 C 492.800781 45.179688 492.617188 45.546875 492.363281 45.875 C 489.527344 49.933594 486.089844 53.515625 482.6875 57.113281 C 495.964844 57.644531 509.367188 58.011719 522.515625 56.785156 Z M 515.914062 223.527344 C 517.210938 218.246094 514.15625 209.746094 508.433594 208.15625 C 508.269531 208.265625 508.070312 208.359375 507.847656 208.414062 C 500.625 209.800781 492.542969 222.304688 501.429688 227.347656 C 505.984375 229.941406 514.378906 229.761719 515.914062 223.527344 Z M 519.9375 236.722656 C 519.625 233.578125 519.425781 230.417969 519.351562 227.238281 C 516.296875 232.519531 509.789062 234.988281 503.425781 233.289062 C 489.050781 229.46875 491.210938 211.28125 502.199219 205.378906 C 486.4375 199.75 474.039062 190.007812 466.453125 174.691406 C 464.019531 174.910156 461.53125 175.238281 459.101562 175.75 C 459.101562 175.84375 459.136719 175.914062 459.136719 175.96875 C 460.214844 189.988281 458.972656 207.296875 466.488281 219.800781 C 477.441406 238.039062 501.066406 237.746094 519.9375 236.722656 Z M 519.625 213.328125 C 519.808594 210.019531 520.0625 206.695312 520.355469 203.351562 C 518.328125 204.335938 516.207031 205.214844 514.046875 205.816406 C 516.460938 207.679688 518.398438 210.386719 519.625 213.328125 Z M 520.941406 197.628906 C 521.160156 195.601562 521.34375 193.609375 521.617188 191.597656 C 518.527344 194.832031 515.015625 197.664062 510.996094 199.75 C 510.996094 200.097656 510.941406 200.480469 510.71875 200.863281 C 510.648438 200.902344 510.648438 200.972656 510.609375 201.011719 C 510.59375 201.230469 510.554688 201.449219 510.519531 201.667969 C 514.210938 201.101562 517.648438 199.421875 520.941406 197.628906 Z M 531.804688 524.550781 C 522.441406 518.757812 514.890625 511.535156 509.804688 501.246094 C 509.457031 501.449219 509.148438 501.667969 508.78125 501.867188 C 499.949219 506.914062 490.84375 509.984375 481.371094 512.46875 C 481.59375 519.488281 482.726562 526.46875 483.421875 533.46875 C 499.695312 531.183594 515.894531 528.679688 531.804688 524.550781 Z M 529.042969 266.535156 C 525.441406 260.265625 523.0625 253.59375 521.546875 246.648438 C 521.472656 246.722656 521.453125 246.8125 521.34375 246.847656 C 510.390625 255.257812 501.027344 265.820312 489.730469 273.808594 C 503.898438 273.917969 518.785156 278.433594 529.042969 266.535156 Z M 522.605469 182.695312 C 524.085938 169.867188 525.402344 157.21875 525.019531 145.265625 C 517.851562 154.347656 507.558594 158.972656 492.542969 154.550781 C 487.773438 153.125 483.65625 151.113281 480.109375 148.664062 C 479.433594 155.648438 478.117188 162.535156 477.550781 169.554688 C 477.550781 169.71875 477.515625 169.828125 477.476562 169.992188 C 484.058594 181.65625 496.148438 189.605469 507.683594 196.019531 C 513.867188 193.023438 518.746094 188.253906 522.605469 182.695312 Z M 537.324219 473.429688 C 535.296875 472.917969 533.246094 472.40625 531.253906 471.914062 C 530.542969 471.730469 529.808594 471.601562 529.097656 471.4375 C 528.074219 471.402344 527.011719 471.363281 525.96875 471.363281 C 524.214844 474.707031 523.847656 478.472656 523.320312 482.164062 C 527.816406 479.277344 532.480469 476.097656 537.324219 473.429688 Z M 542.242188 52.105469 C 542.445312 52.601562 542.628906 53.09375 542.828125 53.09375 C 541.859375 37.027344 513.574219 11.386719 497.023438 24.269531 C 497.078125 24.527344 497.1875 24.910156 497.28125 25.167969 C 497.5 25.917969 497.535156 26.59375 497.410156 27.195312 C 497.410156 27.269531 497.445312 27.324219 497.445312 27.398438 C 497.371094 30.578125 497.0625 33.792969 496.3125 36.863281 C 503.132812 38.726562 510.773438 36.734375 517.230469 40.5 C 523.152344 43.972656 527.652344 48.6875 531.382812 54.375 C 531.675781 54.832031 531.820312 55.25 531.96875 55.671875 C 533.851562 55.378906 535.714844 55.03125 537.582031 54.628906 C 537.542969 54.574219 537.488281 54.484375 537.453125 54.375 C 536.8125 52.964844 536.335938 51.613281 535.789062 50.679688 C 535.203125 49.710938 534.214844 48.523438 533.429688 47.445312 C 528.238281 40.847656 521.089844 37.15625 515.914062 34.523438 C 510.683594 31.984375 507.28125 30.246094 507.558594 29.515625 C 507.8125 28.859375 511.453125 29.222656 517.339844 30.960938 C 520.230469 31.929688 523.703125 33.136719 527.304688 35.238281 C 530.960938 37.15625 534.5625 40.246094 537.671875 43.992188 C 538.640625 45.382812 539.609375 46.441406 540.46875 47.976562 C 541.347656 49.65625 541.769531 50.9375 542.242188 52.105469 Z M 546.558594 222.304688 C 548.992188 205.488281 546.925781 188.726562 545.863281 171.894531 C 543.742188 138.574219 549.082031 105.402344 546.285156 72.082031 C 545.589844 72.175781 544.839844 72.265625 544.144531 72.339844 C 544.144531 73.398438 543.339844 76.066406 542.699219 80.109375 C 542.464844 82.007812 542.28125 84 542.042969 86.085938 C 541.785156 89.867188 541.730469 94.253906 541.730469 99.226562 C 541.695312 101.929688 541.695312 105.039062 541.476562 107.960938 C 541.257812 110.886719 541.054688 113.9375 540.800781 117.0625 C 540.507812 129.363281 541.476562 140.953125 540.46875 149.414062 C 539.902344 153.671875 539.316406 157.089844 538.441406 159.230469 C 537.710938 161.457031 537.105469 162.683594 536.738281 162.574219 C 536.394531 162.519531 536.265625 161.203125 536.394531 158.84375 C 536.613281 156.503906 536.59375 153.199219 536.648438 149.214844 C 536.648438 142.523438 535.589844 133.660156 535.40625 123.480469 C 534.527344 126.402344 533.59375 129.234375 532.496094 131.921875 C 535.808594 155.410156 532.441406 178.089844 530.359375 201.523438 C 529.042969 215.742188 527.851562 231.332031 530.761719 245.660156 C 530.761719 243.707031 530.890625 241.769531 531.035156 239.847656 C 534.214844 205.523438 537.617188 177.835938 539.152344 177.835938 C 540.5625 177.960938 539.628906 205.378906 536.558594 239.171875 C 537.671875 233.289062 538.515625 228.023438 539.097656 223.671875 C 540.03125 215.648438 540.636719 210.769531 541.3125 210.769531 C 541.898438 210.769531 542.445312 215.648438 542.410156 223.929688 C 542.296875 227.988281 541.953125 232.832031 541.273438 238.296875 C 543.523438 233.195312 545.71875 228.042969 546.558594 222.304688 Z M 548.898438 65.136719 C 548.828125 62.726562 548.660156 60.351562 548.40625 57.957031 C 548.222656 58.011719 548.023438 58.046875 547.839844 58.046875 C 518.363281 66.582031 485.90625 62.378906 456.210938 61.921875 C 455.664062 63.949219 455.242188 66.035156 454.878906 68.097656 C 484.902344 71.554688 517.082031 70.089844 546.925781 66.234375 C 547.457031 65.6875 548.132812 65.304688 548.898438 65.136719 Z M 568.171875 342.765625 C 568.757812 337.578125 569.378906 332.421875 570.109375 327.359375 C 559.175781 328.859375 546.265625 330.082031 537.542969 336.789062 C 527.578125 344.464844 525.039062 354.847656 519.039062 365.027344 C 511.652344 377.621094 500.003906 380.070312 486.292969 375.648438 C 480.621094 373.800781 476.835938 367.3125 474.203125 362.46875 C 471.609375 357.609375 460.855469 351.191406 461.769531 361.042969 C 462.046875 364.097656 462.59375 367.183594 462.703125 370.273438 C 463.085938 380.78125 457.289062 387.785156 448.75 391.382812 C 452.023438 393.136719 455.335938 394.691406 458.644531 396.0625 C 471.242188 376.378906 490.3125 390.289062 509.203125 395.460938 C 517.304688 397.671875 526.246094 398.183594 532.332031 391.183594 C 540.507812 381.769531 538.386719 373.253906 541.148438 362.378906 C 545.042969 346.988281 555.136719 348.523438 567.863281 347.976562 C 567.898438 346.277344 567.988281 344.539062 568.171875 342.765625 Z M 570.238281 215.648438 C 570.238281 207.207031 571.171875 198.816406 573.492188 190.300781 C 567.058594 187.449219 560.695312 184.394531 555.191406 180.339844 C 556.230469 193.386719 557.476562 206.785156 555.609375 219.800781 C 554.679688 226.085938 552.375 233.890625 549.703125 239.683594 C 549.320312 238.917969 548.148438 238.167969 547.746094 237.4375 C 544.75 241.859375 544.75 247.359375 543.140625 252.277344 C 541.695312 251.109375 540.34375 249.445312 539.316406 247.746094 C 538.054688 251.765625 538.257812 255.109375 538.332031 259.3125 C 536.851562 257.121094 534.4375 256.152344 532.992188 253.902344 C 534.144531 261.527344 536.996094 268.234375 538.332031 275.691406 C 535.421875 275.179688 533.082031 273.480469 531.675781 271.03125 C 524.214844 277.554688 516.277344 279.125 506.53125 278.832031 C 499.109375 278.578125 487.152344 275.78125 480.277344 279.546875 C 468.28125 286.164062 455.589844 291.976562 445.203125 300.949219 C 446.628906 304.675781 447.78125 308.296875 448.496094 311.988281 C 457.363281 304.675781 467.203125 296.875 477.988281 294.625 C 482.742188 293.582031 486.730469 293.457031 490.917969 296.160156 C 492.835938 297.386719 495.890625 304.953125 497.117188 304.21875 C 505.382812 299.140625 514.726562 290.605469 525.203125 290.988281 C 543.175781 291.699219 555.902344 276.109375 558.371094 259.078125 C 560.695312 243.121094 557.640625 226.925781 570.238281 215.648438 Z M 575.066406 391.019531 C 573.074219 378.042969 568.628906 365.6875 567.917969 352.691406 C 564.972656 352.601562 562.046875 352.125 559.085938 352.289062 C 543.742188 353.058594 545.808594 365.90625 544.839844 374.3125 C 544.238281 379.59375 543.269531 384.53125 540.160156 388.972656 C 535.460938 395.550781 529.296875 401.601562 520.667969 401.855469 C 501.304688 402.367188 477.128906 379.082031 463.308594 397.890625 C 499.75 411.160156 537.929688 403.335938 575.066406 391.019531 Z M 565.285156 304.566406 C 573.75 294.84375 572.285156 282.433594 579.144531 272.21875 C 577.535156 260.246094 573.585938 248.128906 571.867188 236.667969 C 571.171875 231.769531 570.675781 227 570.421875 222.230469 C 562.613281 231.808594 565.320312 244.4375 563.582031 256.40625 C 562.191406 266.023438 558.664062 274.703125 553.160156 282.671875 C 549.667969 287.699219 542.171875 294.425781 535.789062 295.28125 C 527.359375 296.417969 520.410156 295.027344 512.292969 300.234375 C 506.605469 303.875 501.175781 307.601562 495.121094 310.582031 C 493.878906 311.203125 491.8125 310.78125 491.558594 309.136719 C 488.15625 286.929688 461.476562 307.621094 449.265625 317.617188 C 449.390625 319.703125 449.390625 321.820312 449.191406 324.03125 C 448.789062 328.765625 449.136719 332.96875 449.867188 337.082031 C 456.429688 328.015625 465.464844 317.289062 475.449219 321.347656 C 479.855469 323.117188 483.785156 325.203125 486.21875 329.480469 C 489.949219 335.984375 491.941406 346.113281 500.5 336.058594 C 509.878906 325 515.273438 314.511719 530.578125 312.480469 C 540.597656 311.164062 558.023438 313.03125 565.285156 304.566406 Z M 577.207031 297.402344 C 579.144531 292.210938 579.855469 286.839844 579.820312 281.449219 C 574.316406 295.0625 573.96875 311.84375 555.519531 314.566406 C 545.589844 316.007812 534.398438 315.167969 524.929688 318.550781 C 516.554688 321.472656 512.839844 328.949219 507.375 335.347656 C 504.539062 338.726562 492.964844 353.953125 487.773438 344.191406 C 484.296875 337.703125 479.761719 318.222656 466.324219 327.285156 C 460.050781 331.527344 455.683594 337.503906 451.292969 343.515625 C 451.933594 346.074219 452.628906 348.726562 453.339844 351.503906 C 454.949219 357.9375 450.289062 360.570312 449.320312 366.253906 C 448.167969 373.105469 448.84375 379.871094 447.78125 386.648438 C 460.308594 381.222656 455.917969 370.199219 456.851562 358.011719 C 457.070312 355.175781 457.199219 350.554688 460.125 348.90625 C 469.503906 343.679688 474.371094 352.984375 478.375 360.019531 C 486.21875 373.835938 506.277344 379.523438 514.890625 362.597656 C 518.363281 355.78125 520.941406 347.902344 525.730469 341.871094 C 537.195312 327.378906 553.617188 325.09375 570.878906 322.40625 C 572.269531 313.960938 574.152344 305.628906 577.207031 297.402344 Z M 588.816406 288.15625 C 596.019531 285.816406 603.335938 284.335938 610.996094 284.683594 C 610.921875 283.730469 610.921875 282.761719 610.867188 281.792969 C 603.5 281.191406 596.019531 282.691406 589.035156 285.140625 C 589 286.125 588.90625 287.167969 588.816406 288.15625 Z M 610.757812 271.613281 C 611.085938 257.066406 613.007812 242.316406 611.945312 227.859375 C 610.539062 208.101562 596.789062 200.554688 581.519531 193.808594 C 576.144531 215.230469 580.332031 235.589844 584.738281 257.03125 C 585.855469 262.402344 587.296875 268.105469 588.195312 273.863281 C 594.574219 270.773438 603.535156 270.644531 610.757812 271.613281 Z M 612.277344 276.53125 C 612.277344 276.53125 612.277344 276.496094 612.277344 276.457031 C 602.640625 275.472656 595.234375 275.472656 589.839844 279.035156 C 589.875 279.382812 589.292969 279.710938 589.328125 280.058594 C 596.332031 277.773438 604.140625 276.566406 611.507812 277.007812 C 611.507812 276.839844 612.277344 276.695312 612.277344 276.53125 Z M 620.6875 409.953125 C 623.558594 411.195312 626.390625 412.546875 629.191406 413.902344 C 614.523438 401.492188 601.835938 386.523438 589.128906 372.191406 C 588.394531 371.371094 588.046875 370.492188 588.011719 369.597656 C 582.507812 357.132812 580.296875 343.9375 577.882812 330.6875 C 577.023438 336.480469 576.511719 342.253906 576.472656 348.066406 C 576.382812 363.144531 581.777344 377.308594 583.898438 392.113281 C 595.472656 399.644531 608.070312 404.488281 620.6875 409.953125 Z M 630.050781 386.121094 C 628.988281 384.988281 627.964844 383.800781 626.960938 382.609375 C 624.070312 386.046875 622.113281 390.230469 621.527344 394.949219 C 622.460938 395.898438 623.429688 396.832031 624.398438 397.78125 C 625.09375 393.25 627.160156 389.355469 630.050781 386.121094 Z M 646.507812 367.3125 C 639.539062 360.148438 632.335938 353.183594 624.875 346.496094 C 623.867188 345.601562 623.464844 344.539062 623.503906 343.515625 C 622.535156 342.035156 621.601562 340.519531 620.722656 338.945312 C 620.046875 338.472656 619.535156 337.667969 619.351562 336.535156 C 616.480469 320.707031 612.878906 305.371094 611.398438 289.542969 C 603.1875 289.125 595.433594 290.898438 587.71875 293.621094 C 587.535156 294.296875 587.335938 294.9375 587.078125 295.613281 C 585.304688 300.402344 583.734375 305.316406 582.289062 310.289062 C 582.488281 310.617188 582.617188 310.964844 582.710938 311.347656 C 587.207031 329.316406 587.976562 348.269531 595.527344 365.320312 C 595.765625 365.832031 595.855469 366.324219 595.910156 366.800781 C 602.988281 374.804688 610.0625 382.996094 617.488281 390.800781 C 620.960938 377.859375 633.269531 368.867188 646.507812 367.3125 Z M 640.527344 395.972656 C 638.113281 393.816406 635.699219 391.675781 633.394531 389.445312 C 630.523438 392.792969 628.804688 396.941406 628.898438 401.910156 C 628.898438 401.984375 628.859375 401.984375 628.859375 402.003906 C 630.398438 403.429688 631.949219 404.816406 633.523438 406.1875 C 635.445312 402.421875 637.800781 398.988281 640.527344 395.972656 Z M 637.601562 380.015625 C 636.191406 379.011719 634.75 378.042969 633.269531 377.109375 C 632.242188 377.785156 631.273438 378.460938 630.34375 379.230469 C 631.328125 380.492188 632.371094 381.679688 633.449219 382.832031 C 634.75 381.808594 636.15625 380.839844 637.601562 380.015625 Z M 643.871094 392.609375 C 645.355469 391.273438 646.964844 390.066406 648.664062 388.972656 C 646.433594 386.90625 644.164062 384.988281 641.808594 383.121094 C 640.015625 384.019531 638.351562 385.042969 636.832031 386.230469 C 639.117188 388.421875 641.460938 390.507812 643.871094 392.609375 Z M 645.097656 415.21875 C 647.054688 412.164062 649.394531 409.367188 651.992188 406.902344 C 649.523438 404.195312 646.851562 401.65625 644.09375 399.1875 C 641.421875 402.167969 639.136719 405.601562 637.289062 409.332031 C 639.8125 411.359375 642.429688 413.351562 645.097656 415.21875 Z M 653.472656 374.570312 C 652.648438 373.710938 651.808594 372.8125 650.949219 371.902344 C 646.597656 371.902344 642.171875 372.8125 638.113281 374.550781 C 639.59375 375.5 641.039062 376.507812 642.429688 377.566406 C 645.957031 376.085938 649.761719 375.117188 653.472656 374.570312 Z M 655.703125 403.777344 C 657.113281 402.679688 658.59375 401.730469 660.128906 400.851562 C 657.570312 397.925781 654.953125 395.113281 652.191406 392.371094 C 650.546875 393.414062 648.972656 394.5625 647.511719 395.84375 C 650.363281 398.382812 653.160156 400.980469 655.703125 403.777344 Z M 661.699219 383.542969 C 660.367188 382.027344 659.011719 380.546875 657.625 379.046875 C 654.113281 379.230469 650.417969 379.871094 646.890625 381.039062 C 649.011719 382.773438 651.039062 384.601562 653.035156 386.484375 C 655.757812 385.1875 658.648438 384.183594 661.699219 383.542969 Z M 672.929688 396.355469 C 670.476562 393.46875 668.007812 390.632812 665.523438 387.820312 C 662.378906 388.167969 659.433594 388.933594 656.691406 390.085938 C 659.433594 392.863281 662.066406 395.714844 664.609375 398.675781 C 667.257812 397.578125 670.039062 396.8125 672.929688 396.355469 Z M 690.535156 460.03125 C 693.078125 455.152344 696.296875 448.71875 694.320312 443.839844 C 691.175781 435.832031 686.496094 447.09375 685.070312 449.742188 C 683.367188 452.996094 681.210938 455.792969 678.613281 457.109375 C 682.105469 460.289062 686.167969 461.804688 690.535156 460.03125 Z M 708.859375 447.53125 C 708.894531 445.375 708.894531 443.109375 708.472656 440.988281 C 708.308594 439.984375 708.054688 438.996094 707.761719 438.027344 C 707.414062 435.558594 706.007812 435.195312 703.519531 436.964844 C 699.824219 444.898438 700.941406 453.671875 697.667969 461.511719 C 700.171875 462.152344 702.585938 461.988281 705.128906 460.929688 C 705.347656 460.835938 705.585938 460.761719 705.839844 460.746094 C 707.378906 456.46875 708.859375 452.0625 708.859375 447.53125 Z M 721.714844 462.0625 C 721.96875 461.804688 722.261719 461.605469 722.554688 461.441406 C 722.335938 458.332031 722.042969 454.53125 722.058594 450.710938 C 721.621094 447.695312 721.074219 444.679688 720.269531 441.847656 C 719.792969 440.21875 719.300781 437.734375 717.929688 436.582031 C 717.25 436 716.15625 443.511719 716.0625 444.515625 C 715.441406 450.65625 713.90625 456.925781 711.746094 462.753906 C 715.003906 464.492188 718.605469 464.691406 721.714844 462.0625 Z M 727.363281 435.101562 C 726.941406 434.425781 726.539062 433.714844 726.082031 433.074219 C 717.929688 421.285156 703.429688 414.59375 689.421875 414.027344 C 687.648438 413.957031 686.421875 413.023438 685.78125 411.816406 C 685.710938 411.707031 685.617188 411.652344 685.5625 411.5625 C 682.636719 407.925781 679.675781 404.359375 676.695312 400.796875 C 665.121094 401.398438 655.28125 408.398438 649.085938 417.921875 C 653.507812 420.773438 658.171875 423.367188 663.089844 425.636719 C 664.738281 426.367188 665.375 427.683594 665.304688 428.996094 C 665.6875 429.546875 665.941406 430.1875 666.054688 430.953125 C 666.582031 435.871094 669.492188 444.644531 673.914062 451.425781 C 677.976562 454.730469 681.539062 443.457031 683.148438 440.824219 C 685.691406 436.621094 689.054688 434.171875 694.066406 435.816406 C 695.328125 436.21875 696.316406 436.839844 697.191406 437.515625 C 697.355469 437.039062 697.449219 436.546875 697.613281 436.109375 C 699.058594 431.957031 703.628906 427.003906 708.402344 429.800781 C 710.210938 430.863281 711.527344 432.269531 712.515625 433.839844 C 712.773438 433.53125 713.027344 433.203125 713.355469 432.945312 C 716.628906 430.09375 720.816406 430.058594 723.25 434.042969 C 723.90625 435.066406 724.472656 436.199219 724.984375 437.386719 C 725.644531 436.417969 726.429688 435.6875 727.363281 435.101562 Z M 729.046875 462.867188 C 738.683594 471.527344 737.199219 455.371094 736.5625 453.378906 C 735.5 450.144531 734.257812 446.984375 732.648438 443.96875 C 731.933594 442.652344 731.203125 441.371094 730.417969 440.074219 C 728.824219 441.242188 728.113281 444.421875 727.910156 448.207031 C 728.660156 453.085938 728.917969 458.132812 728.917969 462.753906 C 728.953125 462.792969 729.007812 462.792969 729.046875 462.867188 Z M 742.613281 444.808594 C 745.683594 451.679688 748.976562 462.792969 742.320312 468.898438 C 736.5625 474.195312 730.488281 474.582031 724.640625 470.339844 C 723.742188 470.851562 722.773438 471.273438 721.804688 471.621094 C 721.839844 472.078125 721.839844 472.550781 721.714844 473.082031 C 716.539062 495.234375 694.230469 508.648438 680.445312 525.464844 C 663.308594 546.390625 639.558594 560.902344 615.675781 573.277344 C 613.335938 574.464844 611.125 573.441406 609.972656 571.742188 C 590.316406 552.292969 568.464844 542.023438 543.851562 530.875 C 543.523438 530.710938 543.230469 530.582031 542.921875 530.417969 C 515.765625 538.640625 487.644531 541.183594 459.703125 545.496094 C 446.246094 547.542969 430.300781 545.625 417.628906 550.394531 C 408.160156 553.996094 400.734375 556.734375 390.511719 556.1875 C 389.453125 556.113281 388.574219 555.765625 387.933594 555.21875 C 387.386719 555.054688 386.875 554.796875 386.363281 554.378906 C 379.707031 548.949219 379.652344 538.988281 382.210938 531.3125 C 355.277344 519.140625 311.0625 510.988281 309.125 475.21875 C 304.882812 477.03125 300.222656 476.316406 296.144531 473.777344 C 288.371094 477.597656 280.527344 469.957031 278.042969 461.769531 C 275.664062 453.835938 277.929688 441.007812 283.582031 434.628906 C 285.027344 425.433594 294.535156 417.59375 301.609375 412.804688 C 309.199219 407.632812 319.476562 401.910156 328.855469 404.617188 C 339.882812 392.316406 353.15625 381.460938 362.390625 367.695312 C 369.558594 356.96875 375.628906 346.203125 386.398438 338.890625 C 390.257812 314.511719 393.4375 289.25 393.621094 264.613281 C 393.75 247.066406 392.140625 224.714844 400.277344 208.484375 C 408.214844 192.675781 422.804688 179.773438 439.5 172.1875 C 439.589844 171.894531 439.644531 171.640625 439.773438 171.382812 C 457.875 134.5 435.953125 90.289062 450.195312 51.941406 C 450.488281 51.191406 450.910156 50.625 451.386719 50.167969 C 457.457031 33.71875 480.621094 8.5 492.289062 17.214844 C 514.15625 1.371094 548.316406 27.011719 551.3125 51.265625 C 552.5 51.414062 553.234375 52.382812 553.453125 53.515625 C 553.652344 53.863281 553.78125 54.246094 553.855469 54.703125 C 554.367188 59.234375 554.84375 63.75 554.640625 68.355469 C 554.640625 68.390625 554.621094 68.410156 554.621094 68.484375 C 554.640625 68.703125 554.714844 68.902344 554.75 69.160156 C 557.96875 102.113281 553.140625 134.976562 554.421875 167.945312 C 571.390625 186.609375 613.042969 186.734375 618.894531 214.882812 C 622.113281 230.308594 619.792969 245.550781 619.480469 261.105469 C 618.988281 286.125 623.136719 309.0625 627.582031 333.480469 C 627.617188 333.554688 627.636719 333.554688 627.671875 333.609375 C 628.953125 336.132812 630.523438 338.507812 632.097656 340.847656 C 632.296875 341.140625 632.425781 341.433594 632.519531 341.742188 C 654.019531 361.246094 673.476562 382.832031 691.671875 405.421875 C 691.6875 405.457031 691.726562 405.511719 691.761719 405.546875 C 715.824219 407.449219 732.902344 423.277344 742.613281 444.808594 Z M 442.679688 444.84375 C 435.183594 439.855469 429.660156 435.871094 425 433.785156 C 422.640625 432.816406 420.648438 431.886719 418.929688 431.5 C 417.191406 430.988281 415.765625 430.535156 414.648438 430.40625 C 412.402344 429.964844 411.394531 429.582031 411.394531 429.21875 C 411.394531 428.90625 412.402344 428.652344 414.832031 428.523438 C 416.058594 428.394531 417.574219 428.542969 419.496094 428.832031 C 421.453125 429.035156 423.683594 429.765625 426.316406 430.644531 C 431.546875 432.507812 437.597656 436.382812 445.078125 441.078125 C 448.585938 443.125 452.410156 445.355469 456.871094 447.511719 C 456.90625 447.511719 456.90625 447.511719 456.945312 447.511719 C 458.296875 447.785156 459.484375 447.953125 461.128906 448.425781 C 461.898438 448.664062 462.703125 448.882812 463.472656 449.101562 C 464.238281 449.359375 464.972656 449.6875 465.757812 450 C 468.738281 451.222656 471.570312 453.03125 473.949219 454.441406 C 476.378906 455.882812 478.539062 456.777344 480.914062 457.179688 C 481.171875 457.199219 481.5 457.199219 481.757812 457.234375 C 476.546875 452.613281 472.558594 448.117188 469.03125 444.480469 C 464.203125 439.472656 460.417969 435.6875 457.273438 433.074219 C 455.683594 431.792969 454.402344 430.570312 453.25 429.746094 C 452.097656 428.90625 451.164062 428.195312 450.453125 427.609375 C 449.027344 426.457031 448.496094 425.78125 448.625 425.488281 C 448.789062 425.179688 449.609375 425.304688 451.347656 425.980469 C 452.246094 426.328125 453.339844 426.824219 454.730469 427.480469 C 456.085938 428.121094 457.546875 429.179688 459.355469 430.386719 C 462.921875 432.761719 467.128906 436.453125 472.210938 441.371094 C 476.875 445.867188 482.105469 451.589844 489.144531 457.144531 C 489.34375 457.109375 489.527344 457.109375 489.730469 457.109375 C 493.074219 456.890625 496.695312 456.523438 500.882812 456.945312 C 503.003906 457.234375 505.214844 457.621094 507.503906 458.714844 C 508.597656 459.226562 509.714844 459.90625 510.738281 460.707031 L 511.453125 461.3125 C 511.507812 461.386719 511.542969 461.402344 511.578125 461.441406 C 511.617188 461.476562 511.617188 461.476562 511.617188 461.476562 C 511.652344 461.476562 511.652344 461.441406 511.652344 461.441406 L 514.121094 460.929688 C 516.296875 460.582031 518.65625 460.488281 520.8125 460.582031 C 521.765625 460.636719 522.734375 460.707031 523.667969 460.835938 C 524.433594 460.542969 525.183594 460.289062 525.878906 459.996094 C 529.445312 458.515625 532.570312 456.722656 535.367188 455.023438 C 540.925781 451.625 545.351562 448.753906 548.992188 446.964844 C 556.285156 443.253906 559.6875 443.457031 559.796875 443.96875 C 560.015625 444.734375 557.183594 445.667969 550.691406 449.90625 C 547.457031 451.992188 543.339844 455.042969 537.746094 458.769531 C 536.007812 459.941406 534.105469 461.09375 532.023438 462.242188 C 532.496094 462.355469 532.992188 462.445312 533.429688 462.535156 C 534.785156 462.882812 536.191406 463.25 537.582031 463.558594 C 540.289062 463.175781 542.882812 462.535156 545.351562 461.550781 C 549.578125 459.738281 553.453125 457.457031 557.273438 455.207031 C 561.152344 453.03125 564.9375 450.914062 568.722656 449.394531 C 572.523438 447.859375 576.125 446.34375 579.691406 445.484375 C 593.828125 441.425781 605.273438 441.007812 613.8125 440.660156 C 630.945312 440.328125 637.398438 440.949219 637.4375 441.554688 C 637.4375 442.265625 630.855469 442.871094 613.976562 444.09375 C 605.566406 444.863281 594.410156 445.628906 580.972656 449.722656 C 577.570312 450.621094 574.1875 452.101562 570.585938 453.597656 C 566.984375 455.078125 563.453125 457.109375 559.6875 459.320312 C 555.976562 461.550781 551.917969 463.925781 547.289062 465.953125 C 550.269531 466.613281 553.234375 467.105469 555.941406 467.195312 C 556.285156 467.140625 556.617188 467.070312 556.925781 466.996094 C 558.40625 466.722656 559.6875 466.648438 561.078125 466.519531 C 563.65625 466.394531 566.417969 466.226562 569.269531 466.0625 C 569.945312 465.714844 570.621094 465.371094 571.300781 465.003906 C 573.640625 463.796875 575.886719 462.609375 578.046875 461.769531 C 578.375 461.3125 578.722656 460.800781 579.199219 460.25 C 579.398438 460.03125 579.820312 459.648438 580.128906 459.355469 L 580.386719 459.136719 L 580.421875 459.101562 L 580.808594 458.84375 L 580.84375 458.808594 L 580.933594 458.769531 L 581.265625 458.589844 C 581.738281 458.332031 582.085938 458.078125 582.671875 457.785156 L 584.609375 456.980469 L 586.367188 456.433594 C 588.488281 455.847656 590.515625 455.535156 592.382812 455.28125 C 594.210938 455.023438 595.820312 454.730469 597.683594 454.386719 C 601.195312 453.707031 604.722656 453.160156 608.160156 452.703125 C 609.824219 452.484375 611.542969 452.410156 613.136719 452.28125 C 614.746094 452.136719 616.316406 452.0625 617.871094 452.101562 C 619.40625 452.136719 620.886719 452.136719 622.296875 452.15625 C 623.722656 452.28125 625.074219 452.410156 626.355469 452.519531 C 636.925781 453.835938 642.484375 457.363281 642.210938 458.078125 C 641.878906 459.191406 635.734375 457.4375 626.15625 457.492188 C 624.949219 457.527344 623.648438 457.566406 622.296875 457.582031 C 620.980469 457.691406 619.609375 457.820312 618.164062 457.949219 C 615.292969 458.113281 612.277344 458.679688 609.09375 459.136719 C 605.914062 459.703125 602.566406 460.363281 599 461.148438 C 597.300781 461.550781 595.308594 461.933594 593.441406 462.207031 C 591.578125 462.480469 589.839844 462.753906 588.269531 463.175781 L 587.007812 463.542969 C 586.695312 463.667969 586.367188 463.722656 586.054688 463.816406 C 585.691406 463.980469 585.175781 464.179688 584.757812 464.402344 L 584.574219 464.328125 C 584.609375 464.328125 584.628906 464.308594 584.628906 464.308594 L 584.410156 464.308594 L 584.574219 464.328125 C 584.410156 464.402344 584.28125 464.472656 584.28125 464.492188 L 584.355469 464.308594 L 583.347656 464.308594 L 583.347656 464.730469 L 583.972656 464.746094 C 583.933594 464.820312 584.246094 464.746094 584.117188 464.914062 C 583.734375 465.332031 583.3125 466.171875 582.765625 466.996094 C 582.488281 467.417969 582.234375 467.875 581.832031 468.386719 C 581.683594 468.605469 581.390625 468.96875 581.136719 469.242188 C 580.933594 469.480469 580.257812 470.03125 579.746094 470.324219 C 579.710938 470.339844 579.691406 470.378906 579.65625 470.378906 C 576.820312 471.785156 574.132812 472.242188 571.683594 472.441406 C 571.226562 472.714844 570.824219 472.992188 570.273438 473.226562 C 569.398438 473.683594 568.464844 474.140625 567.570312 474.527344 C 566.765625 474.78125 565.921875 475.039062 565.101562 475.332031 C 562.359375 476.007812 559.925781 476.410156 557.566406 476.738281 L 557.566406 476.902344 C 557.257812 476.902344 556.964844 476.867188 556.632812 476.867188 C 553.691406 477.25 551.074219 477.46875 548.828125 477.597656 C 537.582031 481.269531 527.195312 489.621094 517.101562 496.550781 C 526.371094 516.929688 547.859375 522.648438 567.019531 531.183594 C 584.609375 539.097656 600.683594 550.6875 614.488281 564.082031 C 636.503906 552.496094 658.648438 538.640625 674.335938 519.339844 C 677.480469 515.410156 681.285156 511.664062 685.269531 507.828125 C 672.800781 512.359375 661.425781 514.972656 651.515625 516.378906 C 637.125 518.425781 625.808594 518.957031 617.230469 518.976562 C 608.621094 519.085938 602.695312 518.792969 598.945312 518.5 C 595.144531 518.207031 593.535156 517.914062 593.535156 517.570312 C 593.535156 517.238281 595.144531 516.929688 598.945312 516.636719 C 602.695312 516.324219 608.582031 516.089844 617.101562 515.578125 C 625.605469 515.101562 636.761719 514.222656 650.804688 511.976562 C 659.140625 510.660156 668.519531 508.503906 678.707031 505.066406 C 675.230469 505.304688 671.996094 505.324219 668.996094 505.230469 C 659.871094 504.9375 652.871094 503.824219 647.566406 502.945312 C 636.960938 501.0625 633.066406 499.730469 633.175781 499.089844 C 633.269531 498.433594 637.382812 498.542969 648.023438 499.546875 C 653.328125 500.003906 660.21875 500.734375 669.070312 500.773438 C 673.511719 500.828125 678.394531 500.605469 683.699219 499.875 C 687.941406 499.253906 692.476562 498.230469 697.027344 496.457031 C 704.140625 489.203125 710.304688 481.433594 712.898438 472.332031 C 710.632812 471.894531 708.402344 471.015625 706.316406 469.628906 C 702.167969 471.015625 697.503906 470.960938 693.5 469.28125 C 693.003906 469.097656 692.566406 468.84375 692.183594 468.550781 C 674.554688 473.683594 661.738281 451.808594 658.171875 435.613281 C 658.007812 435.613281 657.878906 435.578125 657.714844 435.558594 C 644.585938 431.957031 633.449219 424.886719 621.054688 419.53125 C 610.246094 414.796875 599.257812 410.59375 588.871094 405.089844 C 584.355469 410.464844 578.757812 413.9375 573.511719 416.277344 C 567.496094 418.980469 561.789062 420.515625 556.632812 421.484375 C 546.320312 423.441406 538.183594 423.660156 532.023438 423.824219 C 519.714844 423.898438 515.054688 423.148438 515.054688 422.546875 C 515.054688 421.796875 519.734375 421.359375 531.859375 420.390625 C 537.910156 419.839844 545.863281 419.257812 555.738281 417.117188 C 560.65625 416.074219 566.03125 414.503906 571.554688 412 C 576.089844 409.878906 580.789062 406.9375 584.574219 402.679688 C 582.746094 401.617188 580.933594 400.539062 579.144531 399.371094 C 578.941406 399.242188 578.796875 399.113281 578.632812 398.96875 C 532.535156 414.375 485.15625 422.636719 440.945312 396.976562 C 440.945312 396.976562 440.945312 396.941406 440.90625 396.941406 C 438.949219 398.640625 436.847656 400.175781 434.726562 401.601562 C 437.230469 404.121094 440.101562 406.152344 442.957031 407.722656 C 447.269531 410.082031 451.476562 411.746094 455.371094 413.003906 C 463.105469 415.5625 469.449219 416.878906 474.257812 418.050781 C 483.914062 420.1875 487.609375 421.320312 487.480469 421.996094 C 487.351562 422.636719 483.546875 422.710938 473.621094 421.414062 C 468.699219 420.683594 462.171875 419.714844 454.019531 417.246094 C 449.941406 416.058594 445.441406 414.414062 440.6875 411.871094 C 437.304688 410.042969 433.667969 407.667969 430.558594 404.269531 C 409.949219 416.242188 384.535156 418.597656 363.285156 430.019531 C 361.128906 431.832031 359.007812 433.695312 357.015625 435.6875 C 357.363281 451.515625 342.332031 471.984375 325.328125 470.980469 C 323.113281 472.992188 320.535156 474.417969 317.8125 475.039062 C 319.859375 506.363281 364.769531 513.65625 387.878906 524.402344 C 388.027344 524.476562 388.15625 524.570312 388.320312 524.679688 C 402.746094 525.539062 416.222656 519.816406 429.84375 515.796875 C 445.058594 511.300781 460.765625 508.613281 476.160156 504.902344 C 492.105469 501.082031 504.375 494.027344 517.777344 485.636719 C 519.550781 480.648438 519.132812 475.164062 521.214844 470.210938 C 520.941406 470.175781 520.648438 470.15625 520.355469 470.121094 C 518.65625 470.066406 517.101562 470.085938 515.566406 470.339844 L 514.378906 470.597656 L 513.792969 470.722656 L 512.546875 471.179688 L 509.933594 472.113281 L 509.257812 472.371094 C 509.074219 472.40625 508.820312 472.660156 508.691406 472.371094 L 507.792969 471.347656 L 506.019531 469.242188 L 505.5625 468.695312 L 505.144531 468.347656 L 504.867188 468.09375 C 504.449219 467.78125 503.992188 467.488281 503.480469 467.234375 C 502.492188 466.722656 501.175781 466.464844 499.785156 466.226562 C 496.914062 465.917969 493.679688 466.101562 490.332031 466.300781 C 486.96875 466.484375 483.421875 466.722656 479.5625 466.136719 C 475.648438 465.496094 472.121094 463.796875 469.378906 462.097656 C 466.652344 460.378906 464.496094 458.972656 462.246094 457.96875 L 460.601562 457.273438 L 458.9375 456.761719 C 457.929688 456.394531 456.394531 456.101562 455.132812 455.828125 C 449.867188 454.566406 445.058594 453.472656 440.542969 452.648438 C 438.328125 452.355469 435.953125 451.992188 434.085938 451.808594 C 432.421875 451.644531 430.300781 451.878906 428.234375 452.027344 C 426.480469 452.191406 424.617188 452.320312 422.714844 452.355469 C 419.878906 457.785156 415.800781 461.898438 411.722656 464.785156 C 407.023438 468.09375 402.398438 470.285156 398.121094 471.746094 C 389.582031 474.875 382.597656 475.859375 377.328125 476.480469 C 366.722656 477.542969 362.648438 476.644531 362.648438 476.097656 C 362.648438 475.292969 366.667969 475 376.816406 473.101562 C 381.863281 472.078125 388.574219 470.761719 396.546875 467.617188 C 400.535156 466.0625 404.777344 463.945312 408.925781 460.964844 C 412.164062 458.625 415.289062 455.574219 417.59375 451.714844 C 416.476562 451.351562 415.582031 450.710938 414.703125 450.070312 C 404.042969 455.1875 394.5 457.746094 386.617188 459.027344 C 378.609375 460.363281 372.320312 460.761719 367.527344 460.800781 C 357.949219 460.890625 354.34375 460.070312 354.34375 459.484375 C 354.34375 458.753906 357.984375 458.371094 367.328125 457.402344 C 371.992188 456.925781 378.097656 456.175781 385.777344 454.660156 C 393.019531 453.25 401.667969 450.820312 411.339844 446.304688 C 410.023438 444.550781 409.089844 443.035156 407.957031 441.882812 C 407.117188 440.949219 406.292969 440.21875 405.378906 439.761719 L 404.738281 439.378906 L 403.917969 439.085938 C 403.332031 438.886719 402.78125 438.667969 402.269531 438.484375 C 397.808594 437.222656 393.824219 437.003906 390.734375 436.765625 C 384.535156 436.417969 381.699219 436.109375 381.664062 435.394531 C 381.664062 434.753906 384.277344 433.824219 390.640625 432.980469 C 393.859375 432.691406 398.066406 432.304688 403.53125 433.238281 C 404.191406 433.402344 404.902344 433.585938 405.617188 433.75 L 406.714844 434.042969 C 407.097656 434.171875 407.480469 434.371094 407.902344 434.554688 C 408.707031 434.902344 409.566406 435.304688 410.242188 435.871094 C 410.972656 436.382812 411.761719 436.929688 412.328125 437.550781 C 414.871094 439.925781 416.863281 443.035156 418.820312 444.605469 C 420.628906 446.707031 432.421875 442.523438 441.75 444.699219 C 442.058594 444.769531 442.386719 444.84375 442.679688 444.84375 " fill-opacity="1" fill-rule="nonzero"/><path fill="#ffffff" d="M 579.875 470.285156 L 579.65625 470.378906 C 579.691406 470.378906 579.710938 470.339844 579.746094 470.324219 C 579.785156 470.324219 579.855469 470.285156 579.875 470.285156 " fill-opacity="1" fill-rule="nonzero"/><path fill="#ffffff" d="M 492.398438 114.707031 L 492.910156 115.070312 C 493.332031 115.417969 493.515625 115.417969 493.640625 115.472656 C 495.195312 116.277344 497.921875 115.675781 500.554688 114.832031 C 502.382812 114.320312 504.355469 113.71875 506.40625 113.589844 C 506.058594 112.203125 505.671875 110.941406 505.4375 109.953125 C 505.050781 108.328125 505.035156 107.359375 505.417969 107.15625 C 505.800781 106.992188 506.53125 107.632812 507.539062 108.929688 C 514.03125 117.226562 509.257812 116.824219 502.199219 119.660156 C 500.808594 120.171875 499.308594 120.753906 497.5 121.066406 C 495.671875 121.359375 493.515625 121.394531 491.300781 120.371094 C 490.625 120.078125 489.984375 119.695312 489.730469 119.457031 L 489.179688 119.074219 C 488.886719 118.855469 488.539062 118.433594 488.210938 118.105469 C 487.570312 117.375 487.441406 116.769531 487.152344 116.058594 C 487.023438 115.511719 486.839844 114.871094 486.804688 114.359375 C 486.582031 112.238281 486.765625 110.503906 486.984375 108.855469 C 487.441406 105.621094 488.15625 102.863281 488.722656 100.578125 C 490.019531 96.007812 490.753906 93.285156 491.503906 93.25 C 492.234375 93.175781 492.875 96.375 492.527344 101.144531 C 492.363281 103.503906 492.160156 106.261719 491.976562 109.3125 C 491.90625 110.792969 491.851562 112.367188 492.070312 113.609375 C 492.105469 113.976562 492.199219 114.15625 492.269531 114.414062 C 492.289062 114.488281 492.363281 114.613281 492.398438 114.707031 " fill-opacity="1" fill-rule="nonzero"/></svg>