<svg xmlns="http://www.w3.org/2000/svg" xmlns:xlink="http://www.w3.org/1999/xlink" zoomAndPan="magnify" preserveAspectRatio="xMidYMid meet" version="1.0" viewBox="301 0.14 422 576"><defs><clipPath id="68b0459377"><path d="M 301 0.140625 L 723 0.140625 L 723 575.859375 L 301 575.859375 Z M 301 0.140625 " clip-rule="nonzero"/></clipPath><clipPath id="b92e72252e"><path d="M 337 7 L 687 7 L 687 575.859375 L 337 575.859375 Z M 337 7 " clip-rule="nonzero"/></clipPath></defs><path fill="#ffffff" d="M 653.621094 449.398438 C 652.511719 435.625 640.820312 424.835938 627.011719 424.835938 L 397.085938 424.835938 C 383.273438 424.835938 371.585938 435.625 370.472656 449.398438 L 364.933594 518.066406 C 364.335938 525.480469 366.878906 532.863281 371.917969 538.332031 C 376.957031 543.796875 384.109375 546.933594 391.542969 546.933594 L 632.5625 546.933594 C 639.992188 546.933594 647.148438 543.796875 652.1875 538.332031 C 657.226562 532.867188 659.769531 525.480469 659.171875 518.066406 Z M 379.578125 450.132812 C 380.308594 441.074219 388 433.976562 397.085938 433.976562 L 627.015625 433.976562 C 636.097656 433.976562 643.785156 441.074219 644.519531 450.132812 L 647.617188 488.484375 L 376.492188 488.484375 Z M 645.464844 532.132812 C 642.105469 535.777344 637.515625 537.789062 632.554688 537.789062 L 391.539062 537.789062 C 386.578125 537.789062 381.996094 535.785156 378.628906 532.132812 C 375.265625 528.484375 373.636719 523.75 374.03125 518.800781 L 375.742188 497.621094 L 648.34375 497.621094 L 650.050781 518.800781 C 650.460938 523.75 648.828125 528.484375 645.464844 532.132812 Z M 645.464844 532.132812 " fill-opacity="1" fill-rule="nonzero"/><path fill="#ffffff" d="M 402.695312 475.769531 L 621.421875 475.769531 C 623.945312 475.769531 625.992188 473.722656 625.992188 471.199219 C 625.992188 468.675781 623.945312 466.628906 621.421875 466.628906 L 402.695312 466.628906 C 400.171875 466.628906 398.125 468.675781 398.125 471.199219 C 398.125 473.722656 400.171875 475.769531 402.695312 475.769531 Z M 402.695312 475.769531 " fill-opacity="1" fill-rule="nonzero"/><g clip-path="url(#68b0459377)"><path fill="#ffffff" d="M 682.378906 346.394531 C 699.984375 346.394531 714.300781 332.0625 714.300781 314.449219 L 714.300781 300.003906 C 718.636719 298.09375 721.523438 294.003906 721.746094 289.207031 C 723.46875 252.667969 719.453125 219.058594 709.816406 189.3125 C 707.175781 181.160156 701.539062 174.675781 694.382812 170.859375 C 698.246094 167.609375 701.046875 163.105469 702.0625 157.882812 C 708.601562 124.304688 708.601562 90.261719 702.0625 56.683594 C 699.992188 46.046875 690.585938 38.324219 679.699219 38.324219 L 560.835938 38.324219 L 554.230469 19.9375 C 549.976562 8.097656 537.609375 0.140625 523.457031 0.140625 L 500.644531 0.140625 C 486.488281 0.140625 474.121094 8.097656 469.867188 19.9375 L 463.261719 38.324219 L 344.90625 38.324219 C 333.675781 38.324219 324.226562 46.332031 322.429688 57.355469 C 317.039062 90.484375 317.039062 124.082031 322.429688 157.207031 C 323.3125 162.640625 326.070312 167.328125 329.972656 170.695312 C 322.691406 174.488281 316.953125 181.050781 314.28125 189.300781 C 304.640625 219.046875 300.625 252.65625 302.347656 289.199219 C 302.570312 293.996094 305.457031 298.082031 309.792969 300 L 309.792969 314.445312 C 309.792969 332.058594 324.117188 346.390625 341.71875 346.390625 L 348.753906 346.390625 C 348.074219 350.320312 347.398438 354.253906 346.769531 358.234375 L 323.082031 366.882812 C 311.964844 370.949219 304.484375 381.144531 304.035156 392.863281 C 301.574219 456.054688 316.726562 520.992188 341.730469 554.449219 C 341.773438 554.503906 341.835938 554.523438 341.882812 554.574219 C 350.089844 567.5 364.46875 576.132812 380.808594 576.132812 L 643.277344 576.132812 C 659.617188 576.132812 673.996094 567.5 682.203125 554.574219 C 682.246094 554.523438 682.3125 554.503906 682.355469 554.449219 C 707.355469 520.992188 722.511719 456.054688 720.050781 392.863281 C 719.601562 381.140625 712.121094 370.941406 701.003906 366.878906 L 677.316406 358.230469 C 676.691406 354.246094 676.015625 350.316406 675.332031 346.386719 L 682.378906 346.386719 Z M 682.378906 337.25 L 673.710938 337.25 C 669.464844 314.105469 664.371094 291.867188 658.421875 270.59375 C 659.035156 270.054688 659.652344 269.515625 660.21875 268.996094 C 667.300781 262.503906 670.164062 252.621094 667.671875 243.21875 L 660.804688 217.273438 L 667.105469 219.839844 C 673.765625 222.550781 678.496094 228.464844 679.75 235.664062 C 685.070312 266.09375 691.667969 286.003906 699.9375 296.546875 C 701.332031 298.324219 703.160156 299.550781 705.164062 300.296875 L 705.164062 314.445312 C 705.164062 327.019531 694.941406 337.25 682.378906 337.25 Z M 582.441406 334.53125 L 566.609375 334.53125 L 566.609375 265.464844 L 582.441406 265.464844 Z M 566.609375 343.675781 L 582.441406 343.675781 L 582.441406 368.089844 C 582.441406 372.460938 578.894531 376.011719 574.527344 376.011719 C 570.15625 376.011719 566.609375 372.460938 566.609375 368.089844 Z M 587.011719 256.324219 L 562.039062 256.324219 C 559.519531 256.324219 557.472656 258.371094 557.472656 260.894531 L 557.472656 302.316406 C 543.179688 304.355469 527.949219 305.433594 512.050781 305.433594 C 496.152344 305.433594 480.921875 304.355469 466.628906 302.316406 L 466.628906 260.894531 C 466.628906 258.371094 464.582031 256.324219 462.058594 256.324219 L 437.089844 256.324219 C 434.566406 256.324219 432.519531 258.371094 432.519531 260.894531 L 432.519531 295.113281 C 400.519531 285.804688 380.96875 272.253906 370.054688 262.257812 C 365.480469 258.066406 363.644531 251.667969 365.261719 245.558594 L 383.601562 176.242188 L 640.503906 176.242188 L 658.847656 245.558594 C 660.464844 251.664062 658.628906 258.066406 654.054688 262.253906 C 643.140625 272.253906 623.59375 285.800781 591.589844 295.105469 L 591.589844 260.894531 C 591.578125 258.367188 589.535156 256.324219 587.011719 256.324219 Z M 457.484375 334.53125 L 441.652344 334.53125 L 441.652344 265.464844 L 457.484375 265.464844 Z M 441.652344 343.675781 L 457.484375 343.675781 L 457.484375 368.089844 C 457.484375 372.460938 453.933594 376.011719 449.570312 376.011719 C 445.207031 376.011719 441.652344 372.460938 441.652344 368.089844 Z M 533.996094 47.472656 C 534 47.472656 534.003906 47.472656 534.007812 47.472656 C 534.015625 47.472656 534.019531 47.472656 534.023438 47.472656 L 557.609375 47.472656 C 557.613281 47.472656 557.617188 47.472656 557.621094 47.472656 C 557.628906 47.472656 557.632812 47.472656 557.636719 47.472656 L 566.714844 47.472656 L 566.714844 167.097656 L 457.382812 167.097656 L 457.382812 47.472656 Z M 496.308594 38.332031 L 498.25 32.140625 C 499.207031 29.082031 502.804688 26.859375 506.792969 26.859375 L 517.308594 26.859375 C 521.296875 26.859375 524.890625 29.082031 525.851562 32.144531 L 527.792969 38.332031 Z M 575.851562 167.097656 L 575.851562 47.472656 L 601.644531 47.472656 L 601.644531 167.097656 Z M 448.246094 167.097656 L 422.453125 167.097656 L 422.453125 47.472656 L 448.246094 47.472656 Z M 701.125 192.132812 C 710.425781 220.828125 714.292969 253.34375 712.625 288.777344 C 712.542969 290.480469 711.34375 291.460938 710.25 291.8125 C 709.527344 292.039062 708.164062 292.226562 707.132812 290.910156 C 699.921875 281.714844 693.738281 262.59375 688.753906 234.09375 C 686.949219 223.769531 680.148438 215.277344 670.554688 211.371094 L 657.886719 206.214844 L 649.957031 176.242188 L 679.414062 176.242188 C 689.316406 176.242188 698.046875 182.628906 701.125 192.132812 Z M 693.09375 58.433594 C 699.402344 90.847656 699.402344 123.71875 693.09375 156.136719 C 691.855469 162.488281 686.222656 167.097656 679.699219 167.097656 L 610.777344 167.097656 L 610.777344 47.472656 L 679.699219 47.472656 C 686.222656 47.472656 691.855469 52.082031 693.09375 58.433594 Z M 478.464844 23.035156 C 481.371094 14.9375 490.492188 9.285156 500.644531 9.285156 L 523.457031 9.285156 C 533.605469 9.285156 542.726562 14.9375 545.636719 23.035156 L 551.132812 38.332031 L 537.371094 38.332031 L 534.570312 29.40625 C 532.410156 22.527344 525.316406 17.71875 517.3125 17.71875 L 506.796875 17.71875 C 498.792969 17.71875 491.699219 22.523438 489.539062 29.402344 L 486.730469 38.332031 L 472.972656 38.332031 Z M 331.449219 58.828125 C 332.515625 52.25 338.179688 47.472656 344.90625 47.472656 L 413.320312 47.472656 L 413.320312 167.097656 L 344.90625 167.097656 C 338.175781 167.097656 332.515625 162.320312 331.449219 155.742188 C 326.222656 123.585938 326.222656 90.984375 331.449219 58.828125 Z M 322.972656 192.132812 C 326.050781 182.628906 334.777344 176.242188 344.691406 176.242188 L 374.148438 176.242188 L 366.214844 206.214844 L 353.546875 211.371094 C 343.949219 215.277344 337.148438 223.769531 335.34375 234.09375 C 330.359375 262.59375 324.179688 281.714844 316.964844 290.910156 C 315.933594 292.230469 314.578125 292.042969 313.851562 291.8125 C 312.753906 291.460938 311.558594 290.480469 311.476562 288.777344 C 309.804688 253.34375 313.671875 220.828125 322.972656 192.132812 Z M 341.722656 337.25 C 329.160156 337.25 318.933594 327.023438 318.933594 314.449219 L 318.933594 300.300781 C 320.9375 299.554688 322.761719 298.332031 324.15625 296.550781 C 332.425781 286.011719 339.027344 266.09375 344.34375 235.667969 C 345.601562 228.46875 350.332031 222.550781 356.992188 219.84375 L 363.292969 217.277344 L 356.425781 243.222656 C 353.941406 252.628906 356.796875 262.507812 363.882812 269.003906 C 364.453125 269.527344 365.066406 270.066406 365.675781 270.605469 C 359.726562 291.871094 354.632812 314.117188 350.386719 337.257812 L 341.722656 337.257812 Z M 313.167969 393.222656 C 313.480469 385.226562 318.601562 378.261719 326.222656 375.476562 L 345.25 368.527344 C 338.234375 416.644531 334.695312 468.339844 334.667969 523.195312 C 319.84375 488.890625 311.351562 439.960938 313.167969 393.222656 Z M 643.28125 566.996094 L 380.8125 566.996094 C 360.496094 566.996094 343.886719 550.40625 343.789062 530.011719 C 343.328125 435.5 353.324219 350.398438 373.4375 276.859375 C 386.179688 286.359375 405.234375 296.992188 432.515625 304.59375 L 432.515625 368.085938 C 432.515625 377.492188 440.167969 385.152344 449.570312 385.152344 C 458.976562 385.152344 466.621094 377.492188 466.621094 368.085938 L 466.621094 311.535156 C 480.972656 313.515625 496.1875 314.574219 512.046875 314.574219 C 527.902344 314.574219 543.117188 313.511719 557.46875 311.535156 L 557.46875 368.085938 C 557.46875 377.492188 565.121094 385.152344 574.519531 385.152344 C 583.921875 385.152344 591.574219 377.492188 591.574219 368.085938 L 591.574219 304.597656 C 618.855469 296.996094 637.910156 286.359375 650.652344 276.859375 C 670.765625 350.394531 680.761719 435.496094 680.300781 530.011719 C 680.207031 550.40625 663.597656 566.996094 643.28125 566.996094 Z M 697.875 375.476562 C 705.492188 378.261719 710.617188 385.226562 710.925781 393.222656 C 712.738281 439.960938 704.25 488.890625 689.421875 523.191406 C 689.398438 468.335938 685.855469 416.644531 678.84375 368.523438 Z M 697.875 375.476562 " fill-opacity="1" fill-rule="nonzero"/></g><path fill="#ffffff" d="M 556.730469 261.203125 C 544.460938 250.46875 521.382812 249.308594 512.027344 249.308594 C 502.675781 249.308594 479.59375 250.46875 467.328125 261.203125 C 459.078125 268.425781 450.609375 285.003906 451.628906 296.382812 C 452.210938 302.8125 455.515625 306.070312 458.1875 307.671875 C 466.472656 312.632812 477.003906 306.605469 488.152344 300.222656 C 496.496094 295.445312 505.128906 290.507812 512.027344 290.507812 C 518.925781 290.507812 527.554688 295.445312 535.902344 300.222656 C 544.179688 304.957031 552.109375 309.5 559.039062 309.5 C 561.445312 309.5 563.730469 308.953125 565.867188 307.671875 C 568.542969 306.070312 571.847656 302.8125 572.425781 296.382812 C 573.449219 285.003906 564.980469 268.425781 556.730469 261.203125 Z M 563.441406 295.574219 C 563.183594 298.445312 562.0625 299.433594 561.238281 299.925781 C 557.476562 302.175781 548.398438 296.972656 540.382812 292.386719 C 539.765625 292.035156 539.148438 291.679688 538.527344 291.328125 L 535.59375 274.378906 C 535.167969 271.921875 532.832031 270.269531 530.378906 270.703125 C 527.925781 271.125 526.28125 273.464844 526.707031 275.921875 L 528.441406 285.953125 C 522.929688 283.34375 517.414062 281.480469 512.027344 281.480469 C 506.640625 281.480469 501.125 283.34375 495.613281 285.953125 L 497.351562 275.921875 C 497.777344 273.464844 496.132812 271.125 493.675781 270.703125 C 491.226562 270.273438 488.886719 271.921875 488.460938 274.378906 L 485.527344 291.328125 C 484.910156 291.679688 484.292969 292.035156 483.675781 292.386719 C 475.65625 296.972656 466.566406 302.175781 462.816406 299.925781 C 461.996094 299.433594 460.871094 298.445312 460.617188 295.574219 C 459.886719 287.480469 467.082031 273.414062 473.265625 268.003906 C 481.40625 260.878906 498.625 258.339844 512.027344 258.339844 C 525.429688 258.339844 542.648438 260.878906 550.789062 268.003906 C 556.972656 273.414062 564.167969 287.480469 563.441406 295.574219 Z M 563.441406 295.574219 " fill-opacity="1" fill-rule="nonzero"/><g clip-path="url(#b92e72252e)"><path fill="#ffffff" d="M 686.140625 513.429688 C 684.765625 505.824219 681.496094 497.726562 678.339844 489.894531 C 675.039062 481.71875 671.628906 473.265625 670.835938 466.261719 C 670.042969 459.269531 672.3125 446.402344 674.503906 433.957031 C 676.59375 422.109375 678.753906 409.859375 678.753906 400.59375 C 678.753906 390.03125 675.570312 380.992188 672.761719 373.019531 C 670.277344 365.96875 667.929688 359.308594 667.929688 352.382812 C 667.929688 345.78125 670.359375 339.152344 673.175781 331.480469 C 676.566406 322.234375 680.410156 311.75 680.410156 299.1875 C 680.410156 280.574219 669.683594 263.648438 665.078125 257.242188 C 670.820312 248.199219 674.40625 234.742188 674.40625 219.453125 C 674.40625 191.605469 662.519531 169.789062 647.34375 169.789062 C 646.996094 169.789062 646.644531 169.8125 646.292969 169.835938 C 644.535156 164.773438 642.910156 160.871094 642.210938 159.246094 C 641.578125 144.339844 640.5 130.105469 639.011719 116.890625 C 645.914062 96.207031 645.828125 74.488281 638.726562 55.613281 C 631.042969 35.183594 615.625 20.074219 595.320312 13.058594 C 558.019531 0.179688 520.886719 14.101562 512.03125 17.855469 C 503.175781 14.101562 466.039062 0.179688 428.742188 13.058594 C 408.4375 20.074219 393.023438 35.183594 385.335938 55.613281 C 378.234375 74.488281 378.152344 96.207031 385.050781 116.890625 C 383.558594 130.109375 382.484375 144.347656 381.851562 159.246094 C 381.152344 160.875 379.527344 164.777344 377.769531 169.835938 C 377.417969 169.8125 377.066406 169.792969 376.71875 169.792969 C 361.542969 169.792969 349.65625 191.605469 349.65625 219.457031 C 349.65625 234.742188 353.242188 248.203125 358.984375 257.242188 C 354.378906 263.652344 343.648438 280.574219 343.648438 299.1875 C 343.648438 311.753906 347.496094 322.234375 350.886719 331.480469 C 353.703125 339.152344 356.132812 345.78125 356.132812 352.382812 C 356.132812 359.3125 353.785156 365.972656 351.300781 373.019531 C 348.492188 380.992188 345.308594 390.03125 345.308594 400.59375 C 345.308594 409.859375 347.46875 422.113281 349.554688 433.957031 C 351.75 446.402344 354.019531 459.273438 353.226562 466.261719 C 352.433594 473.269531 349.023438 481.722656 345.722656 489.894531 C 342.5625 497.726562 339.296875 505.824219 337.921875 513.433594 C 336.785156 519.726562 337.191406 526.816406 339.128906 534.503906 C 340.609375 540.394531 344.53125 545.136719 349.65625 547.800781 L 349.65625 571.625 C 349.65625 574.117188 351.675781 576.140625 354.167969 576.140625 L 484.96875 576.140625 C 486.167969 576.140625 487.3125 575.667969 488.160156 574.820312 C 489.003906 573.972656 489.480469 572.824219 489.480469 571.625 L 489.480469 446.105469 C 496.222656 448.1875 503.75 449.25 512.03125 449.25 C 520.3125 449.25 527.84375 448.1875 534.585938 446.105469 L 534.585938 571.625 C 534.585938 572.824219 535.0625 573.972656 535.90625 574.820312 C 536.753906 575.664062 537.898438 576.140625 539.09375 576.140625 L 669.898438 576.140625 C 672.390625 576.140625 674.410156 574.117188 674.410156 571.625 L 674.410156 547.800781 C 679.53125 545.136719 683.453125 540.394531 684.9375 534.503906 C 686.871094 526.8125 687.277344 519.722656 686.140625 513.429688 Z M 652.546875 199.734375 C 652.546875 193.207031 651.058594 185.804688 649.191406 179.082031 C 657.191406 181.261719 665.382812 197.226562 665.382812 219.453125 C 665.382812 243.398438 655.875 260.089844 647.34375 260.089844 C 644.410156 260.089844 641.882812 258.183594 640.0625 256.25 C 639.882812 253.742188 639.84375 251.265625 640.042969 248.820312 C 640.660156 241.1875 643.4375 233.691406 646.125 226.4375 C 649.28125 217.921875 652.546875 209.113281 652.546875 199.734375 Z M 393.777344 58.792969 C 398.53125 46.152344 408.96875 29.441406 431.683594 21.59375 C 469.972656 8.371094 509.710938 26.6875 510.105469 26.875 C 511.324219 27.449219 512.734375 27.449219 513.949219 26.875 C 514.347656 26.6875 554.085938 8.371094 592.375 21.59375 C 615.089844 29.4375 625.527344 46.152344 630.28125 58.792969 C 636.414062 75.09375 636.691406 93.835938 631.140625 111.910156 L 567.617188 111.910156 C 552.878906 88.554688 515.738281 68.996094 514.113281 68.148438 C 512.808594 67.46875 511.25 67.46875 509.945312 68.148438 C 508.320312 68.996094 471.179688 88.554688 456.441406 111.910156 L 392.917969 111.910156 C 387.367188 93.835938 387.644531 75.09375 393.777344 58.792969 Z M 574.734375 351.917969 C 558.261719 356.894531 537.191406 359.417969 512.03125 359.417969 C 486.867188 359.417969 465.796875 356.894531 449.324219 351.917969 C 448.59375 341.621094 444.636719 332.476562 440.792969 323.609375 C 436.246094 313.125 431.949219 303.222656 433.34375 292.265625 C 434.617188 282.277344 440.070312 270.917969 445.84375 258.894531 C 449.132812 252.046875 452.507812 245 455.335938 237.777344 C 457.410156 238.097656 459.535156 238.269531 461.695312 238.269531 C 482.894531 238.269531 500.398438 222.160156 502.65625 201.53125 L 521.402344 201.53125 C 523.660156 222.160156 541.164062 238.269531 562.363281 238.269531 C 564.523438 238.269531 566.648438 238.097656 568.722656 237.777344 C 571.546875 245 574.925781 252.046875 578.214844 258.894531 C 583.988281 270.921875 589.441406 282.277344 590.714844 292.265625 C 592.109375 303.222656 587.8125 313.125 583.265625 323.609375 C 579.421875 332.476562 575.464844 341.621094 574.734375 351.917969 Z M 588.261719 416.214844 C 571.539062 409.714844 552.625 400.042969 552.625 386.507812 L 552.625 365.882812 C 560.671875 364.738281 568.078125 363.203125 574.898438 361.269531 C 575.808594 370.789062 578.722656 379.152344 581.558594 387.285156 C 584.832031 396.65625 587.929688 405.535156 588.261719 416.214844 Z M 471.433594 365.882812 L 471.433594 386.507812 C 471.433594 400.042969 452.519531 409.714844 435.796875 416.214844 C 436.128906 405.539062 439.226562 396.65625 442.5 387.285156 C 445.335938 379.152344 448.25 370.789062 449.160156 361.269531 C 455.980469 363.203125 463.386719 364.738281 471.433594 365.882812 Z M 467.511719 111.910156 C 480.480469 95.5625 504.789062 81.324219 512.03125 77.292969 C 519.273438 81.320312 543.570312 95.546875 556.550781 111.910156 Z M 536.671875 164.796875 C 528.332031 171.472656 522.625 181.320312 521.402344 192.5 L 502.65625 192.5 C 501.433594 181.320312 495.726562 171.472656 487.386719 164.796875 Z M 358.671875 219.453125 C 358.671875 197.226562 366.867188 181.261719 374.867188 179.082031 C 373 185.804688 371.511719 193.207031 371.511719 199.734375 C 371.511719 209.113281 374.777344 217.921875 377.929688 226.441406 C 380.617188 233.691406 383.394531 241.1875 384.015625 248.820312 C 384.214844 251.265625 384.171875 253.742188 383.992188 256.25 C 382.175781 258.183594 379.644531 260.089844 376.714844 260.089844 C 368.179688 260.089844 358.671875 243.402344 358.671875 219.453125 Z M 390.703125 541.125 L 359.257812 541.125 C 353.863281 541.125 349.179688 537.492188 347.871094 532.292969 C 346.25 525.863281 345.886719 520.054688 346.796875 515.035156 C 348.003906 508.34375 351.09375 500.683594 354.082031 493.273438 C 357.609375 484.539062 361.253906 475.507812 362.1875 467.28125 C 363.128906 458.988281 360.847656 446.066406 358.4375 432.386719 C 356.414062 420.921875 354.324219 409.066406 354.324219 400.59375 C 354.324219 391.574219 357.113281 383.667969 359.804688 376.023438 C 362.433594 368.566406 365.148438 360.855469 365.148438 352.382812 C 365.148438 344.171875 362.332031 336.496094 359.351562 328.367188 C 356.066406 319.40625 352.667969 310.144531 352.667969 299.1875 C 352.667969 284.828125 360.554688 271.046875 365.011719 264.402344 C 368.535156 267.429688 372.496094 269.117188 376.714844 269.117188 C 378.632812 269.117188 380.515625 268.769531 382.34375 268.101562 C 382.09375 269.441406 381.839844 270.789062 381.578125 272.152344 C 379.660156 282.171875 377.679688 292.53125 378.972656 304.195312 C 380.191406 315.203125 384.683594 324.882812 389.023438 334.25 C 393.046875 342.917969 396.84375 351.109375 397.238281 359.03125 C 397.644531 367.152344 394.824219 374.6875 391.839844 382.667969 C 388.761719 390.894531 385.578125 399.40625 385.171875 409.734375 C 384.730469 420.976562 388.265625 433.683594 391.683594 445.96875 C 394.539062 456.226562 397.234375 465.917969 397.234375 473.433594 C 397.234375 482.71875 394.707031 489.628906 392.027344 496.941406 C 390.035156 502.378906 387.980469 508 387.121094 514.5 C 385.832031 524.28125 388.496094 534.65625 390.703125 541.125 Z M 443.230469 534.507812 C 441.289062 538.527344 437.140625 541.125 432.660156 541.125 L 400.308594 541.125 C 398.410156 536.230469 394.796875 525.292969 396.066406 515.683594 C 396.792969 510.171875 398.59375 505.253906 400.5 500.046875 C 403.332031 492.316406 406.257812 484.320312 406.257812 473.433594 C 406.257812 464.683594 403.398438 454.417969 400.375 443.546875 C 397.144531 431.929688 393.804688 419.917969 394.191406 410.085938 C 394.539062 401.210938 397.460938 393.394531 400.289062 385.835938 C 403.464844 377.34375 406.75 368.566406 406.25 358.582031 C 405.765625 348.902344 401.609375 339.9375 397.207031 330.445312 C 393.171875 321.742188 388.996094 312.742188 387.9375 303.203125 C 386.796875 292.894531 388.648438 283.214844 390.441406 273.851562 C 392.121094 265.066406 393.710938 256.769531 393.007812 248.089844 C 392.285156 239.214844 389.289062 231.125 386.390625 223.296875 C 383.378906 215.171875 380.535156 207.492188 380.535156 199.734375 C 380.535156 187.65625 386.71875 171.171875 389.3125 164.796875 L 436.007812 164.796875 C 426.558594 172.359375 420.488281 183.988281 420.488281 197.015625 C 420.488281 214.417969 431.316406 229.332031 446.578125 235.378906 C 443.9375 242 440.785156 248.582031 437.714844 254.984375 C 431.617188 267.6875 425.855469 279.683594 424.398438 291.125 C 422.6875 304.542969 427.683594 316.0625 432.515625 327.207031 C 436.589844 336.59375 440.433594 345.457031 440.433594 355.269531 C 440.433594 365.828125 437.300781 374.800781 433.980469 384.304688 C 430.421875 394.5 426.738281 405.042969 426.738281 418.109375 C 426.738281 431.941406 433.714844 443.410156 440.460938 454.496094 C 446.4375 464.324219 452.617188 474.488281 454.222656 486.542969 C 456.515625 503.730469 448.320312 523.972656 443.230469 534.507812 Z M 545.417969 430.753906 C 537.007812 437.035156 525.773438 440.21875 512.03125 440.21875 C 498.285156 440.21875 487.050781 437.035156 478.640625 430.753906 C 472.402344 426.097656 467.6875 419.707031 464.570312 411.738281 C 473.90625 405.164062 480.457031 396.972656 480.457031 386.507812 L 480.457031 366.976562 C 490.105469 367.957031 500.589844 368.449219 512.03125 368.449219 C 523.46875 368.449219 533.953125 367.957031 543.601562 366.976562 L 543.601562 386.507812 C 543.601562 396.972656 550.152344 405.164062 559.488281 411.738281 C 556.371094 419.707031 551.65625 426.097656 545.417969 430.753906 Z M 623.75 541.125 L 591.398438 541.125 C 586.917969 541.125 582.769531 538.527344 580.828125 534.507812 C 575.738281 523.972656 567.542969 503.730469 569.832031 486.542969 C 571.4375 474.488281 577.617188 464.324219 583.597656 454.496094 C 590.339844 443.40625 597.316406 431.941406 597.316406 418.109375 C 597.316406 405.042969 593.636719 394.5 590.074219 384.304688 C 586.757812 374.800781 583.621094 365.824219 583.621094 355.269531 C 583.621094 345.457031 587.46875 336.59375 591.539062 327.207031 C 596.371094 316.0625 601.371094 304.542969 599.660156 291.125 C 598.203125 279.6875 592.441406 267.6875 586.34375 254.984375 C 583.269531 248.582031 580.121094 242 577.480469 235.378906 C 592.742188 229.332031 603.570312 214.421875 603.570312 197.015625 C 603.570312 183.988281 597.5 172.359375 588.046875 164.796875 L 634.742188 164.796875 C 637.335938 171.171875 643.523438 187.65625 643.523438 199.734375 C 643.523438 207.492188 640.679688 215.171875 637.667969 223.296875 C 634.769531 231.125 631.769531 239.214844 631.050781 248.089844 C 630.347656 256.769531 631.933594 265.066406 633.617188 273.851562 C 635.40625 283.210938 637.261719 292.894531 636.117188 303.203125 C 635.058594 312.742188 630.886719 321.742188 626.847656 330.445312 C 622.445312 339.9375 618.289062 348.902344 617.804688 358.582031 C 617.308594 368.566406 620.59375 377.347656 623.765625 385.835938 C 626.59375 393.394531 629.519531 401.210938 629.867188 410.089844 C 630.253906 419.917969 626.910156 431.933594 623.679688 443.546875 C 620.65625 454.417969 617.800781 464.683594 617.800781 473.433594 C 617.800781 484.320312 620.726562 492.316406 623.554688 500.050781 C 625.460938 505.257812 627.261719 510.175781 627.988281 515.6875 C 629.261719 525.292969 625.644531 536.234375 623.75 541.125 Z M 676.1875 532.292969 C 674.878906 537.492188 670.195312 541.125 664.800781 541.125 L 633.355469 541.125 C 635.5625 534.65625 638.226562 524.28125 636.933594 514.5 C 636.078125 508.003906 634.019531 502.378906 632.027344 496.941406 C 629.351562 489.628906 626.820312 482.71875 626.820312 473.433594 C 626.820312 465.917969 629.519531 456.226562 632.371094 445.96875 C 635.789062 433.683594 639.324219 420.976562 638.882812 409.734375 C 638.476562 399.40625 635.292969 390.894531 632.214844 382.667969 C 629.230469 374.6875 626.410156 367.152344 626.816406 359.03125 C 627.210938 351.109375 631.011719 342.917969 635.03125 334.25 C 639.375 324.886719 643.863281 315.203125 645.082031 304.195312 C 646.375 292.53125 644.394531 282.171875 642.476562 272.152344 C 642.214844 270.789062 641.960938 269.4375 641.714844 268.097656 C 643.542969 268.769531 645.425781 269.117188 647.34375 269.117188 C 651.5625 269.117188 655.523438 267.425781 659.050781 264.394531 C 663.507812 271.023438 671.390625 284.777344 671.390625 299.1875 C 671.390625 310.144531 667.992188 319.410156 664.703125 328.367188 C 661.722656 336.496094 658.90625 344.171875 658.90625 352.382812 C 658.90625 360.855469 661.621094 368.566406 664.25 376.023438 C 666.945312 383.667969 669.730469 391.574219 669.730469 400.59375 C 669.730469 409.066406 667.640625 420.921875 665.617188 432.386719 C 663.207031 446.066406 660.929688 458.988281 661.867188 467.28125 C 662.800781 475.507812 666.449219 484.542969 669.972656 493.277344 C 672.960938 500.683594 676.050781 508.34375 677.261719 515.035156 C 678.171875 520.054688 677.808594 525.863281 676.1875 532.292969 Z M 676.1875 532.292969 " fill-opacity="1" fill-rule="nonzero"/></g><path fill="#ffffff" d="M 450.765625 77.125 C 451.652344 78.070312 452.851562 78.550781 454.054688 78.550781 C 455.160156 78.550781 456.269531 78.144531 457.140625 77.328125 C 462.433594 72.351562 469.671875 69.140625 478.65625 67.78125 C 481.117188 67.40625 482.8125 65.105469 482.441406 62.640625 C 482.066406 60.171875 479.753906 58.472656 477.304688 58.851562 C 466.480469 60.492188 457.617188 64.492188 450.964844 70.742188 C 449.152344 72.449219 449.058594 75.304688 450.765625 77.125 Z M 450.765625 77.125 " fill-opacity="1" fill-rule="nonzero"/><path fill="#ffffff" d="M 444.136719 56.929688 C 445.242188 56.929688 446.351562 56.523438 447.222656 55.707031 C 452.515625 50.734375 459.753906 47.519531 468.738281 46.160156 C 471.199219 45.785156 472.894531 43.484375 472.519531 41.019531 C 472.148438 38.554688 469.835938 36.859375 467.386719 37.230469 C 456.5625 38.871094 447.699219 42.875 441.046875 49.121094 C 439.234375 50.828125 439.140625 53.6875 440.84375 55.503906 C 441.734375 56.453125 442.933594 56.929688 444.136719 56.929688 Z M 444.136719 56.929688 " fill-opacity="1" fill-rule="nonzero"/><path fill="#ffffff" d="M 545.402344 67.78125 C 554.386719 69.140625 561.625 72.351562 566.917969 77.328125 C 567.789062 78.144531 568.898438 78.550781 570.003906 78.550781 C 571.207031 78.550781 572.40625 78.070312 573.292969 77.125 C 575 75.304688 574.90625 72.445312 573.089844 70.742188 C 566.4375 64.492188 557.578125 60.492188 546.753906 58.851562 C 544.292969 58.472656 541.992188 60.171875 541.617188 62.636719 C 541.246094 65.101562 542.941406 67.40625 545.402344 67.78125 Z M 545.402344 67.78125 " fill-opacity="1" fill-rule="nonzero"/><path fill="#ffffff" d="M 555.320312 46.160156 C 564.304688 47.523438 571.542969 50.734375 576.835938 55.707031 C 577.707031 56.523438 578.816406 56.929688 579.921875 56.929688 C 581.121094 56.929688 582.324219 56.449219 583.210938 55.503906 C 584.917969 53.683594 584.824219 50.828125 583.007812 49.121094 C 576.355469 42.871094 567.496094 38.871094 556.671875 37.230469 C 554.222656 36.859375 551.910156 38.554688 551.535156 41.019531 C 551.164062 43.484375 552.859375 45.785156 555.320312 46.160156 Z M 555.320312 46.160156 " fill-opacity="1" fill-rule="nonzero"/></svg>