<svg xmlns="http://www.w3.org/2000/svg" xmlns:xlink="http://www.w3.org/1999/xlink" width="1366" zoomAndPan="magnify" viewBox="0 0 1024.5 576" height="768" preserveAspectRatio="xMidYMid meet" version="1.0"><defs><clipPath id="078c2deb3e"><path d="M 337 7 L 687 7 L 687 575.859375 L 337 575.859375 Z M 337 7 " clip-rule="nonzero"/></clipPath></defs><path fill="#000000" d="M 556.730469 261.203125 C 544.460938 250.46875 521.382812 249.308594 512.027344 249.308594 C 502.675781 249.308594 479.59375 250.46875 467.328125 261.203125 C 459.078125 268.425781 450.609375 285.003906 451.628906 296.382812 C 452.210938 302.8125 455.515625 306.070312 458.1875 307.671875 C 466.472656 312.632812 477.003906 306.605469 488.152344 300.222656 C 496.496094 295.445312 505.128906 290.507812 512.027344 290.507812 C 518.925781 290.507812 527.554688 295.445312 535.902344 300.222656 C 544.179688 304.957031 552.109375 309.5 559.039062 309.5 C 561.445312 309.5 563.730469 308.953125 565.867188 307.671875 C 568.542969 306.070312 571.847656 302.8125 572.425781 296.382812 C 573.449219 285.003906 564.980469 268.425781 556.730469 261.203125 Z M 563.441406 295.574219 C 563.183594 298.445312 562.0625 299.433594 561.238281 299.925781 C 557.476562 302.175781 548.398438 296.972656 540.382812 292.386719 C 539.765625 292.035156 539.148438 291.679688 538.527344 291.328125 L 535.59375 274.378906 C 535.167969 271.921875 532.832031 270.269531 530.378906 270.703125 C 527.925781 271.125 526.28125 273.464844 526.707031 275.921875 L 528.441406 285.953125 C 522.929688 283.34375 517.414062 281.480469 512.027344 281.480469 C 506.640625 281.480469 501.125 283.34375 495.613281 285.953125 L 497.351562 275.921875 C 497.777344 273.464844 496.132812 271.125 493.675781 270.703125 C 491.226562 270.273438 488.886719 271.921875 488.460938 274.378906 L 485.527344 291.328125 C 484.910156 291.679688 484.292969 292.035156 483.675781 292.386719 C 475.65625 296.972656 466.566406 302.175781 462.816406 299.925781 C 461.996094 299.433594 460.871094 298.445312 460.617188 295.574219 C 459.886719 287.480469 467.082031 273.414062 473.265625 268.003906 C 481.40625 260.878906 498.625 258.339844 512.027344 258.339844 C 525.429688 258.339844 542.648438 260.878906 550.789062 268.003906 C 556.972656 273.414062 564.167969 287.480469 563.441406 295.574219 Z M 563.441406 295.574219 " fill-opacity="1" fill-rule="nonzero"/><g clip-path="url(#078c2deb3e)"><path fill="#000000" d="M 686.140625 513.429688 C 684.765625 505.824219 681.496094 497.726562 678.339844 489.894531 C 675.039062 481.71875 671.628906 473.265625 670.835938 466.261719 C 670.042969 459.269531 672.3125 446.402344 674.503906 433.957031 C 676.59375 422.109375 678.753906 409.859375 678.753906 400.59375 C 678.753906 390.03125 675.570312 380.992188 672.761719 373.019531 C 670.277344 365.96875 667.929688 359.308594 667.929688 352.382812 C 667.929688 345.78125 670.359375 339.152344 673.175781 331.480469 C 676.566406 322.234375 680.410156 311.75 680.410156 299.1875 C 680.410156 280.574219 669.683594 263.648438 665.078125 257.242188 C 670.820312 248.199219 674.40625 234.742188 674.40625 219.453125 C 674.40625 191.605469 662.519531 169.789062 647.34375 169.789062 C 646.996094 169.789062 646.644531 169.8125 646.292969 169.835938 C 644.535156 164.773438 642.910156 160.871094 642.210938 159.246094 C 641.578125 144.339844 640.5 130.105469 639.011719 116.890625 C 645.914062 96.207031 645.828125 74.488281 638.726562 55.613281 C 631.042969 35.183594 615.625 20.074219 595.320312 13.058594 C 558.019531 0.179688 520.886719 14.101562 512.03125 17.855469 C 503.175781 14.101562 466.039062 0.179688 428.742188 13.058594 C 408.4375 20.074219 393.023438 35.183594 385.335938 55.613281 C 378.234375 74.488281 378.152344 96.207031 385.050781 116.890625 C 383.558594 130.109375 382.484375 144.347656 381.851562 159.246094 C 381.152344 160.875 379.527344 164.777344 377.769531 169.835938 C 377.417969 169.8125 377.066406 169.792969 376.71875 169.792969 C 361.542969 169.792969 349.65625 191.605469 349.65625 219.457031 C 349.65625 234.742188 353.242188 248.203125 358.984375 257.242188 C 354.378906 263.652344 343.648438 280.574219 343.648438 299.1875 C 343.648438 311.753906 347.496094 322.234375 350.886719 331.480469 C 353.703125 339.152344 356.132812 345.78125 356.132812 352.382812 C 356.132812 359.3125 353.785156 365.972656 351.300781 373.019531 C 348.492188 380.992188 345.308594 390.03125 345.308594 400.59375 C 345.308594 409.859375 347.46875 422.113281 349.554688 433.957031 C 351.75 446.402344 354.019531 459.273438 353.226562 466.261719 C 352.433594 473.269531 349.023438 481.722656 345.722656 489.894531 C 342.5625 497.726562 339.296875 505.824219 337.921875 513.433594 C 336.785156 519.726562 337.191406 526.816406 339.128906 534.503906 C 340.609375 540.394531 344.53125 545.136719 349.65625 547.800781 L 349.65625 571.625 C 349.65625 574.117188 351.675781 576.140625 354.167969 576.140625 L 484.96875 576.140625 C 486.167969 576.140625 487.3125 575.667969 488.160156 574.820312 C 489.003906 573.972656 489.480469 572.824219 489.480469 571.625 L 489.480469 446.105469 C 496.222656 448.1875 503.75 449.25 512.03125 449.25 C 520.3125 449.25 527.84375 448.1875 534.585938 446.105469 L 534.585938 571.625 C 534.585938 572.824219 535.0625 573.972656 535.90625 574.820312 C 536.753906 575.664062 537.898438 576.140625 539.09375 576.140625 L 669.898438 576.140625 C 672.390625 576.140625 674.410156 574.117188 674.410156 571.625 L 674.410156 547.800781 C 679.53125 545.136719 683.453125 540.394531 684.9375 534.503906 C 686.871094 526.8125 687.277344 519.722656 686.140625 513.429688 Z M 652.546875 199.734375 C 652.546875 193.207031 651.058594 185.804688 649.191406 179.082031 C 657.191406 181.261719 665.382812 197.226562 665.382812 219.453125 C 665.382812 243.398438 655.875 260.089844 647.34375 260.089844 C 644.410156 260.089844 641.882812 258.183594 640.0625 256.25 C 639.882812 253.742188 639.84375 251.265625 640.042969 248.820312 C 640.660156 241.1875 643.4375 233.691406 646.125 226.4375 C 649.28125 217.921875 652.546875 209.113281 652.546875 199.734375 Z M 393.777344 58.792969 C 398.53125 46.152344 408.96875 29.441406 431.683594 21.59375 C 469.972656 8.371094 509.710938 26.6875 510.105469 26.875 C 511.324219 27.449219 512.734375 27.449219 513.949219 26.875 C 514.347656 26.6875 554.085938 8.371094 592.375 21.59375 C 615.089844 29.4375 625.527344 46.152344 630.28125 58.792969 C 636.414062 75.09375 636.691406 93.835938 631.140625 111.910156 L 567.617188 111.910156 C 552.878906 88.554688 515.738281 68.996094 514.113281 68.148438 C 512.808594 67.46875 511.25 67.46875 509.945312 68.148438 C 508.320312 68.996094 471.179688 88.554688 456.441406 111.910156 L 392.917969 111.910156 C 387.367188 93.835938 387.644531 75.09375 393.777344 58.792969 Z M 574.734375 351.917969 C 558.261719 356.894531 537.191406 359.417969 512.03125 359.417969 C 486.867188 359.417969 465.796875 356.894531 449.324219 351.917969 C 448.59375 341.621094 444.636719 332.476562 440.792969 323.609375 C 436.246094 313.125 431.949219 303.222656 433.34375 292.265625 C 434.617188 282.277344 440.070312 270.917969 445.84375 258.894531 C 449.132812 252.046875 452.507812 245 455.335938 237.777344 C 457.410156 238.097656 459.535156 238.269531 461.695312 238.269531 C 482.894531 238.269531 500.398438 222.160156 502.65625 201.53125 L 521.402344 201.53125 C 523.660156 222.160156 541.164062 238.269531 562.363281 238.269531 C 564.523438 238.269531 566.648438 238.097656 568.722656 237.777344 C 571.546875 245 574.925781 252.046875 578.214844 258.894531 C 583.988281 270.921875 589.441406 282.277344 590.714844 292.265625 C 592.109375 303.222656 587.8125 313.125 583.265625 323.609375 C 579.421875 332.476562 575.464844 341.621094 574.734375 351.917969 Z M 588.261719 416.214844 C 571.539062 409.714844 552.625 400.042969 552.625 386.507812 L 552.625 365.882812 C 560.671875 364.738281 568.078125 363.203125 574.898438 361.269531 C 575.808594 370.789062 578.722656 379.152344 581.558594 387.285156 C 584.832031 396.65625 587.929688 405.535156 588.261719 416.214844 Z M 471.433594 365.882812 L 471.433594 386.507812 C 471.433594 400.042969 452.519531 409.714844 435.796875 416.214844 C 436.128906 405.539062 439.226562 396.65625 442.5 387.285156 C 445.335938 379.152344 448.25 370.789062 449.160156 361.269531 C 455.980469 363.203125 463.386719 364.738281 471.433594 365.882812 Z M 467.511719 111.910156 C 480.480469 95.5625 504.789062 81.324219 512.03125 77.292969 C 519.273438 81.320312 543.570312 95.546875 556.550781 111.910156 Z M 536.671875 164.796875 C 528.332031 171.472656 522.625 181.320312 521.402344 192.5 L 502.65625 192.5 C 501.433594 181.320312 495.726562 171.472656 487.386719 164.796875 Z M 358.671875 219.453125 C 358.671875 197.226562 366.867188 181.261719 374.867188 179.082031 C 373 185.804688 371.511719 193.207031 371.511719 199.734375 C 371.511719 209.113281 374.777344 217.921875 377.929688 226.441406 C 380.617188 233.691406 383.394531 241.1875 384.015625 248.820312 C 384.214844 251.265625 384.171875 253.742188 383.992188 256.25 C 382.175781 258.183594 379.644531 260.089844 376.714844 260.089844 C 368.179688 260.089844 358.671875 243.402344 358.671875 219.453125 Z M 390.703125 541.125 L 359.257812 541.125 C 353.863281 541.125 349.179688 537.492188 347.871094 532.292969 C 346.25 525.863281 345.886719 520.054688 346.796875 515.035156 C 348.003906 508.34375 351.09375 500.683594 354.082031 493.273438 C 357.609375 484.539062 361.253906 475.507812 362.1875 467.28125 C 363.128906 458.988281 360.847656 446.066406 358.4375 432.386719 C 356.414062 420.921875 354.324219 409.066406 354.324219 400.59375 C 354.324219 391.574219 357.113281 383.667969 359.804688 376.023438 C 362.433594 368.566406 365.148438 360.855469 365.148438 352.382812 C 365.148438 344.171875 362.332031 336.496094 359.351562 328.367188 C 356.066406 319.40625 352.667969 310.144531 352.667969 299.1875 C 352.667969 284.828125 360.554688 271.046875 365.011719 264.402344 C 368.535156 267.429688 372.496094 269.117188 376.714844 269.117188 C 378.632812 269.117188 380.515625 268.769531 382.34375 268.101562 C 382.09375 269.441406 381.839844 270.789062 381.578125 272.152344 C 379.660156 282.171875 377.679688 292.53125 378.972656 304.195312 C 380.191406 315.203125 384.683594 324.882812 389.023438 334.25 C 393.046875 342.917969 396.84375 351.109375 397.238281 359.03125 C 397.644531 367.152344 394.824219 374.6875 391.839844 382.667969 C 388.761719 390.894531 385.578125 399.40625 385.171875 409.734375 C 384.730469 420.976562 388.265625 433.683594 391.683594 445.96875 C 394.539062 456.226562 397.234375 465.917969 397.234375 473.433594 C 397.234375 482.71875 394.707031 489.628906 392.027344 496.941406 C 390.035156 502.378906 387.980469 508 387.121094 514.5 C 385.832031 524.28125 388.496094 534.65625 390.703125 541.125 Z M 443.230469 534.507812 C 441.289062 538.527344 437.140625 541.125 432.660156 541.125 L 400.308594 541.125 C 398.410156 536.230469 394.796875 525.292969 396.066406 515.683594 C 396.792969 510.171875 398.59375 505.253906 400.5 500.046875 C 403.332031 492.316406 406.257812 484.320312 406.257812 473.433594 C 406.257812 464.683594 403.398438 454.417969 400.375 443.546875 C 397.144531 431.929688 393.804688 419.917969 394.191406 410.085938 C 394.539062 401.210938 397.460938 393.394531 400.289062 385.835938 C 403.464844 377.34375 406.75 368.566406 406.25 358.582031 C 405.765625 348.902344 401.609375 339.9375 397.207031 330.445312 C 393.171875 321.742188 388.996094 312.742188 387.9375 303.203125 C 386.796875 292.894531 388.648438 283.214844 390.441406 273.851562 C 392.121094 265.066406 393.710938 256.769531 393.007812 248.089844 C 392.285156 239.214844 389.289062 231.125 386.390625 223.296875 C 383.378906 215.171875 380.535156 207.492188 380.535156 199.734375 C 380.535156 187.65625 386.71875 171.171875 389.3125 164.796875 L 436.007812 164.796875 C 426.558594 172.359375 420.488281 183.988281 420.488281 197.015625 C 420.488281 214.417969 431.316406 229.332031 446.578125 235.378906 C 443.9375 242 440.785156 248.582031 437.714844 254.984375 C 431.617188 267.6875 425.855469 279.683594 424.398438 291.125 C 422.6875 304.542969 427.683594 316.0625 432.515625 327.207031 C 436.589844 336.59375 440.433594 345.457031 440.433594 355.269531 C 440.433594 365.828125 437.300781 374.800781 433.980469 384.304688 C 430.421875 394.5 426.738281 405.042969 426.738281 418.109375 C 426.738281 431.941406 433.714844 443.410156 440.460938 454.496094 C 446.4375 464.324219 452.617188 474.488281 454.222656 486.542969 C 456.515625 503.730469 448.320312 523.972656 443.230469 534.507812 Z M 545.417969 430.753906 C 537.007812 437.035156 525.773438 440.21875 512.03125 440.21875 C 498.285156 440.21875 487.050781 437.035156 478.640625 430.753906 C 472.402344 426.097656 467.6875 419.707031 464.570312 411.738281 C 473.90625 405.164062 480.457031 396.972656 480.457031 386.507812 L 480.457031 366.976562 C 490.105469 367.957031 500.589844 368.449219 512.03125 368.449219 C 523.46875 368.449219 533.953125 367.957031 543.601562 366.976562 L 543.601562 386.507812 C 543.601562 396.972656 550.152344 405.164062 559.488281 411.738281 C 556.371094 419.707031 551.65625 426.097656 545.417969 430.753906 Z M 623.75 541.125 L 591.398438 541.125 C 586.917969 541.125 582.769531 538.527344 580.828125 534.507812 C 575.738281 523.972656 567.542969 503.730469 569.832031 486.542969 C 571.4375 474.488281 577.617188 464.324219 583.597656 454.496094 C 590.339844 443.40625 597.316406 431.941406 597.316406 418.109375 C 597.316406 405.042969 593.636719 394.5 590.074219 384.304688 C 586.757812 374.800781 583.621094 365.824219 583.621094 355.269531 C 583.621094 345.457031 587.46875 336.59375 591.539062 327.207031 C 596.371094 316.0625 601.371094 304.542969 599.660156 291.125 C 598.203125 279.6875 592.441406 267.6875 586.34375 254.984375 C 583.269531 248.582031 580.121094 242 577.480469 235.378906 C 592.742188 229.332031 603.570312 214.421875 603.570312 197.015625 C 603.570312 183.988281 597.5 172.359375 588.046875 164.796875 L 634.742188 164.796875 C 637.335938 171.171875 643.523438 187.65625 643.523438 199.734375 C 643.523438 207.492188 640.679688 215.171875 637.667969 223.296875 C 634.769531 231.125 631.769531 239.214844 631.050781 248.089844 C 630.347656 256.769531 631.933594 265.066406 633.617188 273.851562 C 635.40625 283.210938 637.261719 292.894531 636.117188 303.203125 C 635.058594 312.742188 630.886719 321.742188 626.847656 330.445312 C 622.445312 339.9375 618.289062 348.902344 617.804688 358.582031 C 617.308594 368.566406 620.59375 377.347656 623.765625 385.835938 C 626.59375 393.394531 629.519531 401.210938 629.867188 410.089844 C 630.253906 419.917969 626.910156 431.933594 623.679688 443.546875 C 620.65625 454.417969 617.800781 464.683594 617.800781 473.433594 C 617.800781 484.320312 620.726562 492.316406 623.554688 500.050781 C 625.460938 505.257812 627.261719 510.175781 627.988281 515.6875 C 629.261719 525.292969 625.644531 536.234375 623.75 541.125 Z M 676.1875 532.292969 C 674.878906 537.492188 670.195312 541.125 664.800781 541.125 L 633.355469 541.125 C 635.5625 534.65625 638.226562 524.28125 636.933594 514.5 C 636.078125 508.003906 634.019531 502.378906 632.027344 496.941406 C 629.351562 489.628906 626.820312 482.71875 626.820312 473.433594 C 626.820312 465.917969 629.519531 456.226562 632.371094 445.96875 C 635.789062 433.683594 639.324219 420.976562 638.882812 409.734375 C 638.476562 399.40625 635.292969 390.894531 632.214844 382.667969 C 629.230469 374.6875 626.410156 367.152344 626.816406 359.03125 C 627.210938 351.109375 631.011719 342.917969 635.03125 334.25 C 639.375 324.886719 643.863281 315.203125 645.082031 304.195312 C 646.375 292.53125 644.394531 282.171875 642.476562 272.152344 C 642.214844 270.789062 641.960938 269.4375 641.714844 268.097656 C 643.542969 268.769531 645.425781 269.117188 647.34375 269.117188 C 651.5625 269.117188 655.523438 267.425781 659.050781 264.394531 C 663.507812 271.023438 671.390625 284.777344 671.390625 299.1875 C 671.390625 310.144531 667.992188 319.410156 664.703125 328.367188 C 661.722656 336.496094 658.90625 344.171875 658.90625 352.382812 C 658.90625 360.855469 661.621094 368.566406 664.25 376.023438 C 666.945312 383.667969 669.730469 391.574219 669.730469 400.59375 C 669.730469 409.066406 667.640625 420.921875 665.617188 432.386719 C 663.207031 446.066406 660.929688 458.988281 661.867188 467.28125 C 662.800781 475.507812 666.449219 484.542969 669.972656 493.277344 C 672.960938 500.683594 676.050781 508.34375 677.261719 515.035156 C 678.171875 520.054688 677.808594 525.863281 676.1875 532.292969 Z M 676.1875 532.292969 " fill-opacity="1" fill-rule="nonzero"/></g><path fill="#000000" d="M 450.765625 77.125 C 451.652344 78.070312 452.851562 78.550781 454.054688 78.550781 C 455.160156 78.550781 456.269531 78.144531 457.140625 77.328125 C 462.433594 72.351562 469.671875 69.140625 478.65625 67.78125 C 481.117188 67.40625 482.8125 65.105469 482.441406 62.640625 C 482.066406 60.171875 479.753906 58.472656 477.304688 58.851562 C 466.480469 60.492188 457.617188 64.492188 450.964844 70.742188 C 449.152344 72.449219 449.058594 75.304688 450.765625 77.125 Z M 450.765625 77.125 " fill-opacity="1" fill-rule="nonzero"/><path fill="#000000" d="M 444.136719 56.929688 C 445.242188 56.929688 446.351562 56.523438 447.222656 55.707031 C 452.515625 50.734375 459.753906 47.519531 468.738281 46.160156 C 471.199219 45.785156 472.894531 43.484375 472.519531 41.019531 C 472.148438 38.554688 469.835938 36.859375 467.386719 37.230469 C 456.5625 38.871094 447.699219 42.875 441.046875 49.121094 C 439.234375 50.828125 439.140625 53.6875 440.84375 55.503906 C 441.734375 56.453125 442.933594 56.929688 444.136719 56.929688 Z M 444.136719 56.929688 " fill-opacity="1" fill-rule="nonzero"/><path fill="#000000" d="M 545.402344 67.78125 C 554.386719 69.140625 561.625 72.351562 566.917969 77.328125 C 567.789062 78.144531 568.898438 78.550781 570.003906 78.550781 C 571.207031 78.550781 572.40625 78.070312 573.292969 77.125 C 575 75.304688 574.90625 72.445312 573.089844 70.742188 C 566.4375 64.492188 557.578125 60.492188 546.753906 58.851562 C 544.292969 58.472656 541.992188 60.171875 541.617188 62.636719 C 541.246094 65.101562 542.941406 67.40625 545.402344 67.78125 Z M 545.402344 67.78125 " fill-opacity="1" fill-rule="nonzero"/><path fill="#000000" d="M 555.320312 46.160156 C 564.304688 47.523438 571.542969 50.734375 576.835938 55.707031 C 577.707031 56.523438 578.816406 56.929688 579.921875 56.929688 C 581.121094 56.929688 582.324219 56.449219 583.210938 55.503906 C 584.917969 53.683594 584.824219 50.828125 583.007812 49.121094 C 576.355469 42.871094 567.496094 38.871094 556.671875 37.230469 C 554.222656 36.859375 551.910156 38.554688 551.535156 41.019531 C 551.164062 43.484375 552.859375 45.785156 555.320312 46.160156 Z M 555.320312 46.160156 " fill-opacity="1" fill-rule="nonzero"/></svg>